<mxfile host="app.diagrams.net" modified="2021-03-02T09:12:40.846Z" agent="5.0 (Windows NT 10.0; Win64; x64) AppleWebKit/537.36 (KHTML, like Gecko) Chrome/88.0.4324.190 Safari/537.36" etag="m5hsVNONelCN1ZuE3eV8" version="14.4.3" type="github">
  <diagram id="6a731a19-8d31-9384-78a2-239565b7b9f0" name="Page-1">
    <mxGraphModel dx="1783" dy="934" grid="1" gridSize="10" guides="1" tooltips="1" connect="1" arrows="1" fold="1" page="1" pageScale="1" pageWidth="1169" pageHeight="827" background="#FFFFFF" math="0" shadow="0">
      <root>
        <mxCell id="0" />
        <mxCell id="1" parent="0" />
        <mxCell id="2019" value="" style="rounded=1;whiteSpace=wrap;html=1;dashed=1;strokeColor=none;strokeWidth=2;fillColor=#E6E6E6;fontFamily=Verdana;fontSize=12;fontColor=#00BEF2" parent="1" vertex="1">
          <mxGeometry x="30" y="120" width="160" height="670" as="geometry" />
        </mxCell>
        <mxCell id="2020" value="" style="rounded=1;whiteSpace=wrap;html=1;dashed=1;strokeColor=none;strokeWidth=2;fillColor=#E6E6E6;fontFamily=Verdana;fontSize=12;fontColor=#00BEF2" parent="1" vertex="1">
          <mxGeometry x="220" y="120" width="220" height="670" as="geometry" />
        </mxCell>
        <mxCell id="2021" value="" style="rounded=1;whiteSpace=wrap;html=1;dashed=1;strokeColor=none;strokeWidth=2;fillColor=#E6E6E6;fontFamily=Verdana;fontSize=12;fontColor=#00BEF2" parent="1" vertex="1">
          <mxGeometry x="460" y="120" width="220" height="670" as="geometry" />
        </mxCell>
        <mxCell id="2022" value="" style="rounded=1;whiteSpace=wrap;html=1;dashed=1;strokeColor=none;strokeWidth=2;fillColor=#E6E6E6;fontFamily=Verdana;fontSize=12;fontColor=#00BEF2" parent="1" vertex="1">
          <mxGeometry x="700" y="120" width="240" height="670" as="geometry" />
        </mxCell>
        <mxCell id="2023" value="" style="rounded=1;whiteSpace=wrap;html=1;dashed=1;strokeColor=none;strokeWidth=2;fillColor=#E6E6E6;fontFamily=Verdana;fontSize=12;fontColor=#00BEF2" parent="1" vertex="1">
          <mxGeometry x="962.5" y="120" width="170" height="670" as="geometry" />
        </mxCell>
        <mxCell id="2024" value="" style="rounded=1;whiteSpace=wrap;html=1;dashed=1;strokeColor=none;strokeWidth=2;fillColor=#E6E6E6;fontFamily=Verdana;fontSize=12;fontColor=#00BEF2" parent="1" vertex="1">
          <mxGeometry x="1240" y="130.25" width="165" height="670" as="geometry" />
        </mxCell>
        <mxCell id="2025" value="Data Source" style="whiteSpace=wrap;html=1;dashed=1;strokeColor=none;strokeWidth=2;fontFamily=Helvetica;fontSize=18;fontColor=#FFFFFF;fontStyle=1;fillColor=#FF9999;" parent="1" vertex="1">
          <mxGeometry x="30" y="120" width="160" height="60" as="geometry" />
        </mxCell>
        <mxCell id="2026" value="Migration Tools" style="whiteSpace=wrap;html=1;dashed=1;strokeColor=none;strokeWidth=2;fontFamily=Helvetica;fontSize=18;fontColor=#FFFFFF;fontStyle=1;fillColor=#FF9999;" parent="1" vertex="1">
          <mxGeometry x="220" y="120" width="220" height="60" as="geometry" />
        </mxCell>
        <mxCell id="2027" value="Data Lake" style="whiteSpace=wrap;html=1;dashed=1;strokeColor=none;strokeWidth=2;fontFamily=Helvetica;fontSize=18;fontColor=#FFFFFF;fontStyle=1;fillColor=#FF9999;" parent="1" vertex="1">
          <mxGeometry x="460" y="120" width="220" height="60" as="geometry" />
        </mxCell>
        <mxCell id="2028" value="Data Warehouse" style="whiteSpace=wrap;html=1;dashed=1;strokeColor=none;strokeWidth=2;fontFamily=Helvetica;fontSize=18;fontColor=#FFFFFF;fontStyle=1;fillColor=#FF9999;" parent="1" vertex="1">
          <mxGeometry x="700" y="120" width="240" height="60" as="geometry" />
        </mxCell>
        <mxCell id="2029" value="Data Service" style="whiteSpace=wrap;html=1;dashed=1;strokeColor=none;strokeWidth=2;fontFamily=Helvetica;fontSize=18;fontColor=#FFFFFF;fontStyle=1;fillColor=#FFCC99;" parent="1" vertex="1">
          <mxGeometry x="962.5" y="120" width="171.5" height="60" as="geometry" />
        </mxCell>
        <mxCell id="2030" value="&amp;nbsp; &amp;nbsp;Presentation" style="whiteSpace=wrap;html=1;dashed=1;strokeColor=none;strokeWidth=2;fillColor=#3399FF;fontFamily=Helvetica;fontSize=18;fontColor=#FFFFFF;fontStyle=1" parent="1" vertex="1">
          <mxGeometry x="1240" y="130.25" width="165" height="60" as="geometry" />
        </mxCell>
        <mxCell id="2037" value="" style="verticalLabelPosition=bottom;html=1;verticalAlign=top;strokeColor=none;fillColor=#3399FF;shape=mxgraph.azure.tablet;dashed=1;fontFamily=Helvetica;fontSize=14;fontColor=#004C99" parent="1" vertex="1">
          <mxGeometry x="60" y="401" width="44.5" height="29" as="geometry" />
        </mxCell>
        <mxCell id="2038" value="" style="verticalLabelPosition=bottom;html=1;verticalAlign=top;strokeColor=none;fillColor=#3399FF;shape=mxgraph.azure.mobile;dashed=1;fontFamily=Helvetica;fontSize=14;fontColor=#004C99" parent="1" vertex="1">
          <mxGeometry x="134.5" y="395" width="25.5" height="35" as="geometry" />
        </mxCell>
        <mxCell id="2039" value="Devices" style="verticalLabelPosition=bottom;html=1;verticalAlign=top;strokeColor=none;fillColor=#3399FF;shape=mxgraph.azure.laptop;dashed=1;fontFamily=Helvetica;fontSize=14;fontColor=#004C99;direction=south;" parent="1" vertex="1">
          <mxGeometry x="94.5" y="441" width="30" height="50" as="geometry" />
        </mxCell>
        <mxCell id="2040" value="Applications" style="verticalLabelPosition=bottom;html=1;verticalAlign=top;strokeColor=none;fillColor=#3399FF;shape=mxgraph.azure.mobile_services;dashed=1;fontFamily=Helvetica;fontSize=14;fontColor=#004C99" parent="1" vertex="1">
          <mxGeometry x="95.5" y="250" width="32.5" height="50" as="geometry" />
        </mxCell>
        <mxCell id="2042" value="" style="verticalLabelPosition=bottom;html=1;verticalAlign=top;strokeColor=none;fillColor=#3399FF;shape=mxgraph.azure.github_code;dashed=1;fontSize=14;fontColor=#004C99" parent="1" vertex="1">
          <mxGeometry x="121.5" y="560" width="50" height="50" as="geometry" />
        </mxCell>
        <mxCell id="2043" value="" style="verticalLabelPosition=bottom;html=1;verticalAlign=top;strokeColor=none;fillColor=#3399FF;shape=mxgraph.azure.dropbox_code_source;dashed=1;fontSize=14;fontColor=#004C99" parent="1" vertex="1">
          <mxGeometry x="61.5" y="563" width="50" height="47.5" as="geometry" />
        </mxCell>
        <mxCell id="2044" value="Repositories" style="text;html=1;strokeColor=none;fillColor=none;align=center;verticalAlign=middle;whiteSpace=wrap;overflow=hidden;dashed=1;fontSize=14;fontColor=#004C99" parent="1" vertex="1">
          <mxGeometry x="48.5" y="620" width="120" height="20" as="geometry" />
        </mxCell>
        <mxCell id="2046" value="Mobile Services" style="verticalLabelPosition=bottom;html=1;verticalAlign=top;strokeColor=none;fillColor=#3399FF;shape=mxgraph.azure.mobile_services;dashed=1;fontSize=14;fontColor=#004C99" parent="1" vertex="1">
          <mxGeometry x="287" y="661" width="32.5" height="50" as="geometry" />
        </mxCell>
        <mxCell id="2047" value="&lt;font style=&quot;font-size: 32px&quot; color=&quot;#666666&quot;&gt;RIM: Vector 3 Data Engineering&lt;/font&gt;" style="text;html=1;strokeColor=none;fillColor=none;align=center;verticalAlign=middle;whiteSpace=wrap;overflow=hidden;dashed=1;fontSize=36;fontFamily=Helvetica;fontStyle=1;fontColor=#7EA6E0;image=data:image/png,iVBORw0KGgoAAAANSUhEUgAAAfQAAAD6CAYAAABXq7VOAAAABGdBTUEAALGPC/xhBQAAO/pJREFUeAHtnQmAHFWd/+tVzxFmJncIV+bOBTEkCHIEE4KisCCgcogcSQggCC6uroggC+FYcF3EVYEFISHhEogHgqggiyGAHH8SDglJIDOZizvkTsjMdFf9v7/O9FBTqep+1V19zXwf/NL1rt979Xk19at31CvDoCMBEiABEiABEiABEiABEiABEiABEiABEiABEiABEiABEiABEiABEiABEiABEiABEiABEiABEiABEiABEiABEiABEiABEiABEiABEiABEiABEiABEiABEiABEiABEiABEiABEiABEiABEiABEiABEiABEiABEiABEiABEiABEiABEiABEiABEiABEiABEiABEiABEiABEiABEiABEiABEiABEiABEiABEiABEiABEiABEiABEiABEiABEiABEiABEiABEiABEiABEiABEiABEiABEiABEiABEiABEiABEiABEiABEiABEiABEiABEiABEiABEiABEiABEiABEiABEiABEiABEiABEiABEiABEiABEiABEiABEiABEiABEiABEiABEiABEiABEiABEiABEiABEiABEiABEiABEiABEiABEiABEiABEiABEiABEiABEiABEiABEiABEiABEiABEiABEiABEiABEiABEiABEiABEiABEiABEiABEiABEiABEiABEiABEiABEiABEiABEiABEiABEiABEiABEiABEiABEiABEiABEiABEiABEiABEiABEiABEiABEiABEiABEiABEiABEiABEiABEiABEiABEiABEiABEiABEiABEiABEiABEiABEihuAqq4q99/aj/5R88MjxjRofk6o8igwVuXzTtoXb7KZ7kkQAIkQAKZEaBBz4xfxrknzrmrrrO78/LywaMml1ZUHZqxwjQVVFXu9uLeew5921TqusUXTlmdphpmIwESIAESyBMBGvQ8gU8YckOpObZtl5ZXjVhVVjlkYp6qYwwZUrFij1GDJyllxAxD/YaGPV8twXJJgARIID0CNOjpcUs7l9uQJxSVVw1/p6xy6D4Jf65/YdBbYdBrE+XSsCdI8JcESIAEioMADXqO2snPkCeKL6satrm8ctiQhD/Xv0OHVn40emTV7u5ylaEsWxm/iSh1LYfi3XToJwESIIHCIUCDnuW2iBvyaNePUcxsGVr3Kw69cwu9dNMvPtvhw4ZVfrL7iKrd/MqhYfcjw3ASIAESKAwCNOhZagddQ54ovqxiiFE+eETCm/Pf4cOr7FHDK1NeDzTsOW8aFkgCJEACWgRS3sC1tDBRL4GghjyRMe8GfVilMWpEVaI6KX9p2FMiYgISIAESyCkBGvSQcKdryBPFF5tBT9Sbhj1Bgr8kQAIkkF8CNOgZ8s/UkCeKL1aDnqg/DXuCBH9JgARIID8EaNDT5B6WIU8UX+wGPXEeNOwJEvwlARIggdwSoEEPyHvCWXfUd9nW5ciWdNV6QLVGfzHoifOmYU+Q4C8JkAAJ5IYADbom54Zv3T7U3m7ciOShGvJE8f3NoCfOSwy7YdgPVETM793z7SkfJsL5SwIkQAIkEC6BvL33HO5pZF+b6jTH4j3yc5O9S579WhRfCbZhm7ZhnL5DmVOKr/asMQmQAAkUDwEa9OJpK9aUBEiABEiABHwJ0KD7omEECZAACZAACRQPARr04mkr1pQESIAESIAEfAnQoPuiYQQJkAAJkAAJFA8BGvTiaSvWlARIgARIgAR8CdCg+6JhBAmQAAmQAAkUDwEa9OJpK9aUBEiABEiABHwJ0KD7omEECZAACZAACRQPARr04mkr1pQESIAESIAEfAnQoPuiYQQJkAAJkAAJFA+BkuKpavKaNp69oDrWFb186iEH1puRyEtKmUsrquzn75k1ZVvynIwtNgIz59w1qCXWfYiy7RmGbcyYeujB76LNr/7dhfs3F9u5sL4kQAIkEBaBojfocUPe3X2Z1dV9Dj4CUqaU2mrY9tG2HTO2bTaiJ93y6jJDqaVK2UvLbPO5+y/cf0NY8KgnNwQmzJ0/uLM7Ni1uwA1jRmt318HS1tgjPu4UPjFkW7HTv37zq/co07yOhj037cJSSIAECotA0Rr0sWfcMSaqrMsThjxxc3fhLcHHVA6BgT8E8ZfsUJb99Ztfed0w1NIIjLxhlDy7+KJJ77vy0JtnAhNnLRrZbe2YHoPxVuiBd3ZGp8JkR3zaOFFbXMv22TDsZ+Eh7m5Dmf9Jw55Aw18SIIGBQKDoDLoY8piKXRazrXNhqHt7aVqNZdvyuVh89cueErPtfzWMLgM3/9Vi4A304M1I6dLF509q09LFRKERGD9r0T4xu3M62iQ+hL4jtmM/tFH8074pjLhXHeQhbq5hx2bRsHvhYRgJkEB/JVA0Br3XkBuxc2zbKMcNP5Q2wc1/AnRNgLrzYhYM/M2vtMkQPcKWmpiHX3zhFBh8ujAJjJ+7oCHWHZ0RN+DohXfFPmkMU3+PLhr2LEClShIggcIlEO8FFW71DEN6b92xHZehB41vkYshT+4OOPTgrZhHr0qeKkCsUh+Kcd+w7uO1a99ac0mAnIGSllUMMcoHjwiUJ8zEw4dVGqNGhIfNXbf3O979xbsd7aPR8T4CPPd2x2fi/+xhh+hkj+K64FC8DimmIQESKEoCBd9D77J2vAEDMCykDnnwRrLt0ch0cvmgQcHzMkcvga1bNn93ZxuGM7LSq1j/oLfHfspDKyoXnzqpSz8rU5IACZBA4RMohvfQywofI2tYRARK9qwqK/iRqSLiyaqSAAkUCIFiMOgFgorVIAESIAESIIHCJUCDXrhtw5qRAAmQAAmQgDYBGnRtVExIAiRAAiRAAoVLoOAXxRUuOtaMBHJHYP/996/cvmnThJhljcJueIONmDHIVtYW245sUqXq/ebm5rewij9vKw5zRyJ/JeEVV7VvfX1t1DDq0A6DlaUG26YdNS1zs4rYm6qUWvlqS8vG/NWQJQ90AjToA/0K4PkXJIGGhoahdjR6tGEZx6OC0zev31CD352b7cSsnXWOm++YYXcbRkN1zbq66upnTMP8U01E3b+kpWVHJic2ceLEkd3bt0/01IEHh2qllnuVIQ8eWzZuPN227GOUoQ5EfryLaUtdmrFVUJPs8VA5ePBdK1as0HrL4JRTTokse/HFw3CqJxgWNh5SRiXelii3ldqCx5dnVUQt3SO295+f73j+E8+6Zhg4trb2s9GYfbwy7H+pr66ZDHUVCZW2vLaBpojhP/kfltyqH1P9T5z3Ers0smDt2rXYlTIzh/IPQBGhvubprpGySlqb2pvwNlH6bnJNzfBttv0N1PVgnH810FSjrfYEofVg147fDryyulqVRh4El1D29hg7dqy8xjzEq9ZV0Wi338OV/G0Z3bEzLMM6Cn9S2GgM1yg2KcO1+T7q2oE/sj+qsrJ7m5qa8MpycbmCX+1bd+bt2wC7948oFd7Q30PvKXD7tm3GqtczuuaTVr2/v4e+ZuUqY/PGTUkZpBup+R56r/p9GqoG/erYcZ29AQV0gJvUGGtH1w8swz4P1dK+7p2ngD/qj5SpbjXLym5as2bNZmecznF9ff0UOxp7AX93vu9qooy22pLIhIRRnzdvnnn3/PnnW4a6HvmGJSsHeTuw//71TW1ttyUbVWgcU3dMTFm3Ql99Mn0wHO/gQebKWeecvRD16HnaSZojaaScy6IFC07GA8TlMERyw0/L4dyeNE11Q1Nr61PpKGiorp1r2db8dPIGzWNGzJOaW1t/HzRfY23tkZZlfxv5TsAIRsp9QkQ/2v4lZZiLzPLS+bg+0/o7bKitPc6OWQ+gfXw3zwD/RWvb2+ZImeJkhAVMv4Oj65Plk7S4RqPYPvqXFUOqLtN9+JR8+XacQ893C7B8EgABudnUj6m9JNbZ1QRj/l0EpWXMBSZuVrvjJntVbEfX67jhfkHCArlo9DhUyNeYiy6UUdNmWQfFj1H3hfMXzLdsQ4xvUmPek3eMpK2vqbtF/G43s65uEEYb7kPP9y/Ql9yYS2bb2EcM38I7Fzwzta4uZfnu8pz+8XV1E6FnGUYYHsQ5pm3M49Wy7aNiMev/MHpym4xcOMvROUYP8vM66UJJE8PoRwA3adKkqvoxNbfj/J7CtXuKrjGXIrBB2MFor1uinV3LZAQkQLG9SdE+s1MZZdTprEQGGemBMb8boyq/TJVP8iAN9q2wvr9t05YX8YBbm9BT6L806IXeQqxfvycgw5UNNbV/tQ3rp7gJhbbvAm5etbjhPtlQUzMvGEQzopMedcUH8OK9nttwl56jk6dPGtv6NozCL5xhM2fOLGmNWQ/ijnq6M1zv2J62MWo9NX78+FF66fumqq+pObMrGnsZt/OpfWMy81m2ff7mDRtfm1hXVxdME/qyOXIwYNplNVRXH7Rt85bXcH19K6Pq2fakmGW/UF9de0VgPbYRyHa9/PyLN6G+ZwYuR66F7ugj6TyQBS8r8xyBoGReHDWQAAk4CUhvdKttPALD+GVneIjHSnrrMFZBbr64v+s5jAD8KJMbO/JejJEJfPp4p2ttaroNLE5I+IP/2gd0f/LJ74LmA59T0OtbhHyBe9JaZdl2446Y9WdMqXjO+WrpKIBEY2tqJmFa5Qk8wDWEUR20dSl6wtc2jKn5SRj6vHTEh+dxnXnF6YThj2H/zRs23KmTNt9paNDz3QIsf0ATaInG7sNN7fPZhgBjddOE6mrdxVV6vTWl9sLDQvDeletk0c+/EYZud3RgD8FwbK9xdyXT9kLHDAzZn6ibobGm5nCMCNyD9Nm9H9r2vhhmvlq3XoWWDovJaqK2/TiM+fCw64ZppkvR8/9e2HoPPPDAUsy1/zxjvbZxmkzHZKwnywqyewFnufJUTwLFTAA9h6+j/iK5cJVdhnGZZkF6PXT5TG0Gc/29dcG8e6yz81Ijat3QG5bpga20RiRkbjVmG7/GQ5XWgq5Mq4U5iu8EeLDKtLjQ8stUiN3V/aisVwhNqUsR1lX8DCMl8lZHaG7Dhx+fiYt5XBgKu6OWLP4raEeDXtDNw8r1VwI9PYdgw4xKNWOq8++Y7fwDutAvgk2gFd3ouX5TytVgqtVDh74vaejSS2IbWAhoH6mXWCeVfQSMdMrzePnFF89Bj3M/HY3xNMrA63HqFbya9SfIYyigQzsvEsK4lHTaSmsuF6/l4YXE3Dh8Kvr5ZCW1NDdfJEPPydKEEKdwRf/qsDGH7RaCrrgK247hugrHYSRJq93CKS09LTTo6XFjLhLIiMCGD9adqttzgNF4saQkcmRLe1tjS0fbF1ra27++tqP90Eh5WR1ezXk0QEVGbvhwQ5gLvkK7f4ihC3AeOkkrx1aPbUyZ0LJ/nDINEqAN8Pld42cl5eW1aIPPru1oOx7yleb2thp55Qvt8IGOHkkDXXrrJZT9WyTfpqs37XTKWF8dMR72y9/Y2DgaDxdX+8W7w/HK5J2RiHlsxCgbFzHV5w1TfRfnrPXggzUVtR+Y71zq1pmm38R1NSXNvLtms40RwRc27qommyFh/xFls67UTQL9hgCe9k+Q7loqByPydG0kckzifW9nemx80Y53pr+6aP6Ch9Eb1RqqtFRUXhP6f049YR7jxr0OpyU9rHAWlynVIvWD3r1xjmVyrO+ishHMGr/04+rqpnZHYzV+8Y5wrKlW56xta7vbERY/hCGXVvz9uNralVHLeAV1TD10r4z4635uXW7/2vb2J/B62J6dnZ3ar+JZlmViaPyRIIbMtM1/9bq+EvWxurquwmjM0IQ/ya8NY34qOMmDSMIJ/+fQ677jfdXxV1nfkIjw+8XQ+6V4iJgv17dfmrTDZYTFVs/j76oUjCZjdEabrZTZGYvJKEWLHBeiC+0JuxBPjnUigUIkIPORqNfRqeoGY4FtXUtPTHazlY1UcHPq8+pXMr3KVqOTxacVpxR2glPzBlVVjsLIwe7YzGNwWUlkX4T9OS192HdNesMYgdgDoxL1IhURsxZW/a4g+jAfkXS+FzvAfUVHH+pyi5cxd+Z9u7V1JR7QnnSG+R3D6A+dibcb/OKd4djUZCs2X+nQFSsa/VoQYw6mDzR3tN7vLNN5vLOe6gxnmN8xjPnNLmPem1R28sO1fALKW98b6HeAPRBind1z/aLTDUc7zq+0h4zBCMsXcY3OGDl6930wbfLLIPrwNzkpSPpcp6VBzzVxljfgCbS1tTXITT01CPse7NG+KVW6Aw85ZIn0jFOlk3gsyhqpky5Imohhno2b5NWrVq36OF4Geq1vtbSsWtveKgZzSRBdSGtj17dZ6J3+wLn15oqWlvcx1TAXN9QHA+iTkQJfh9elDvCNdESURiKeG+A4kuw8NI0/7hLmE9AeiezuE5V2MFahj0OP8wZtBUq9BwN3UbL0LbHYiTrXKq6/6CClkpYt1zJ2iFuYrLzeOGX0bgrTG5bBAQz3r3FNnbuiY0XvA8WyZcu2Y9rku3jI8J1ucBeJZRlp7XHg1pMtPw16tshSLwn4EBg+fPha3ETuT2WEI6a5wEdFn+DFixfHsPzr2T6BPh703kb4RKUVDAP7RFN7ywNemRFnm8q4xCvOLwx5FifrMRolkaRGw6kX87FJDXrEiNyBNngbZeIFAG+HXt1SeTjxju0bGsHQct8Qf5+KRkM1DLJdrdUVXYhRgqTn7KwRtqU9z2ngnHG9x7Yxu/c4yYGNd9NXtra+lyRJPMq01d9SpYnH4739+OuEWolTJFJq49AS03devsQ0r02hoTcamz8N7/UU4AENegE2CqvUvwmgZ9CN3uYZMjw9co/RlaURcz9DRY7BkOX5SpnX4/c+9GR+uKa19RVdEjBKeounlFGuq1MnHYxm0oeO5vb2l2E0tRZExctTxp3Jyl27du1rONfNydIk4pAu6Zx7U0fLX9EG42efM3e3cmXsUxIxp0VU5JsYx7gUhvxWeeiKKHVhQl/KX9vW3pccD1bahjdluUiwaP5d38fgxjSdtPE0yliAvdsfS5ZeVpuj7XTfZHg6ma5EHBbK/TNxnOoXUybfSJVGJx5t+Zjfh1okP/7OluM8defrA82569QvzDRcFBcmTeoigYAEZNgPWVb2SMDcfZJ/0seXmQf2Rs9h1XfKXilGD95Az3GMjkYM276RKh0qJ8OmQ1Klw1t9sAmpnaxDQKp3e+T51Dm8U8RKSqLYJtQ70h2q8UqdO4ufXzY86YpZ2r1MGK+2SHn59/z0JcI/irw71Y7pvX0QiSithZZvdbz1Tl11zQatzWls+5BEXTL8/Wvq/Op1PBBVp0xnq1AfiFOWFzABe+gBgTE5CRQiAdiHbs166Rhr3PNTO+kpy2KtVCmxEK8tVZp4PBZM6Qzb4uFgo44+1E/LoOvo0kljmmZOy5M6ycY43bHYIhhIrUV2yCIr0eei3VKOcsRihnz+VstZptmslRCJcHGlfGjbqUtN0dw3IVnRtlla+kSyBBKHXnzK6ziuA7NIqXTlM5499HzSZ9kkEICA7ANudXaOx7KxCYZpj4dllle5RmHBzygs8No3gKpwktr2+zqK0EPfDiOc0uE83kyZKJ7A1jLo6J+HbmBlrvqBhQtrdsSMCcq2xsM4NVrK3l3aAK937aVX//BS4VvxP8SrYAfrapSphOa2tv/TSq/sg3TaDbrs2tradzAdoqUW8+0w6Pb0VIlxbZdv/vhjWVX+aqq0vvFKrXQurvRPZ2zSOVe0M5ZKFK6jQS/ctmHNBjiB+vr6CUYsdgRu2Idhdfq06A4Y87iDnXKYKsxj54eUUlt0CoYR6cY56LgNOonQ84Y+PYU6+pKlmYnXy1otazoM9+Eochre+cd+83Z8uF9qEK8F/slHGzRWN37GsrvnJau/Mw7tsGbE6NE/xGpvZ3CSY70d9MBm25IlSzTnGrBhvrLb8a65lrNisalImL5Bt+0PdQraOcKlVSmcbuE6GvTCbRvWbAASqK+un4GVtF/FHpjH293RsQkEWreaROLMf/WKs229m7gtvRotlY7HlCQnEfDTmUk0eUbh9a+hRnfsJHTwj8fHc2RRWKVW7T21ZSdQ9jJoaWqWofakC/8cpVumUnN61mw4gpMeaq3otpXamlSLO9K2sW+BnsPrG6P1UvqkUobWQ6JP7qILpkEvuiZjhfsjAXyGdBq+XIbvoUcPl/MrNAPixRxDpzGvcHcYRhciOueDnq+WPujKyjymzNdu+Oijf7e6oz/UWrTlPtEc+lvWNF+Oq+SzukWid35TU1tbygWMffTZxrA+fh8P2ld3/UZCg7ZBx4S7Vh0Sij1+N3qEeQTpjhl4ZC2goKz8YRTQ+bEqJFDQBGROtqGm5upYzHoGBi1uzAugwlrDijASegZY2Vrzjpif1Oqhy+vtYTMaX1PTsP7DD5/DQ9UNhW7MZctasL9Cm4FSb2JVu376TxVrGlO9dvtUbUTfoBtKsw6fanceyXSA09/fj0P/w+jvwHh+JBAWATHmi+5csBBG5EroLKS/RZ0ONaqsPZGt9YCA3phmuWG1wE492Id93y7beA5n87lwNYevTUYRotHYIjz8lepoB/ioadizsapd+x150SvvoKMxNEdwU3/VzlXXAAbdysigY/l6Xq4p1/nmzKvZYDmrDwsigQFDYNH8+b/A3easgCeMu6d6Cx93WY7XwT5SprEB3dr1yrJPh66w3tvVM8ABK16IySfV1e25LWY9hWeTPQPW72O0w/PYS7cV+dZjod56LKyqwtsG1wbUEyg5RhGuRDvvr51JGTfI5j7a6XsSHn3u0Z0L75wvxlDnWgj0MGorqzvAo5tO+UFPzyM99jR0rjT1SFEMQTToxdBKrGO/I9BQW/t1K2Z9R/vElHoXt9ZfVprmItnX3J2vrrr6UNwkwzLobvX90o9erqqvrr0PIw26xhzLBowHsbjsFrz69awbSsOYhslY0Jg1g95QXX0QRhF+5C7X369eHTF692v1V7V/qgmjR1Z9dc0WMEq5gQ+sfqBd76BTawpGagMru/7TWvEoFQEa9FSEGE8CIROYKa9CRWO/0FaLL2KZpSUXyMct/PKgtx4N8dUp6Zn1eze2pv4bMOZf0DlRGJZ1sC5nwDj6blJSUmJ1d+mt+9cpsk8a7EFQHu3sWoj6at2zMWLQpeySWbLNcB9FQTx2/H3/lAYdKgMZdNStFEZdtyY5MuhcFKfbIExHAiTgINBiWd/C7WyMI8j3EMO6j80555wzkhnznsyf+CphxC4EpHdu2bGrd4nwCBDjiA+ZfDWZMZds3UplrQ2sHV1XY1pA+9OdWDQ3r7mjWXvfdI/TliDNFeJGhTxw+OjYJRir4qt2CfQJYA/dB4xPcKC5Dx8dDCYBEghCwDLO1kkOQ9JtlEbOkeHPVOkxsa77PnIqVRKP+2j/dmPxmiAeqno26klxrsq4XeeVL7Pb1FqolqK0XaLH1tUdahn2JbtE+ASg8V7EJ3V/6hMdIFi16ybGA5L2++KWUhqfDk6UHNlleikRw99dCdCg78qEISSQNQIT6+rqMGw6VbOAh7Gd5gc6aXET31snnWYa7fFQTX0Fl8yy1dd1K4UJ39t10lrKCrMN4kXKavNY1FoIj969WhmfGKUls+WTujp1TpoGCy+TxjsiVSy2j8Ob9BDXqn5aO6L10ZekBQ6gSL2LZAAB4amSQDYJdFrWQbr6MWyqfUPFgrgJmnorNNP182SW7odHtq9pa1uhBQN7u2ulQyIMuWi1w/vq3euwNkK3bbGtqrocD4GrdeuRLB2e6pYli3fGxaL60wG4Vmudef2OYfjXNXU0rfGLZ/iuBLQWWOyajSEkQAJpEbBt7Zs+bqjv6JTR2NhYHevs0rpJQp/OB0RwL+3fDsvVYSRBOIXDGgbtYWe8wjZdQ2W8RJScsjePDYc+b1nWv6WoYp9oy7b/A58nvRTz1FFsydqF+rRiAmU1XspajcXly2sba/+hu+86Po27DN8P6KPfz4MtBCb7xe0SbtsH7BLmGaBe8AzOSmD/eG2NPfSsXBxUSgLeBGBItBcEGZbet5ftrq7jvEvbNRRznfsGWcC0q4b+EYLtRiq1zkRzlzvZWx1G+staOiWRbSSddpE2wrrrhUgZ7B5tGyPknXrUZQx+G1DQkfi9AJsX/Rw2/mns//4RXnH8TcOY2tNTXQfxT+MqtVaqm8phX4QvpEoj8ROqq/dG3ap10mJTmKe10jFRL4FgF0tvNh6QAAlkmwBukrghp3Z4SDgndareFJXRzujMXp/3Ae65/d3p7m6mauWb46lotDY1HSuGNFW6RDx60EkfwqJdXadBX2MifWi/tj0MDxOn4cMz92FUpxXv4V8xceLEkX760fO+1y/OGY630CbL9rnOMK/jTqVO9gp3h2GIKFoRUVplu/Om5+dra+lxYy4SGMAEMIT7sfbp28YRqdJig5pj0evWnpcXffiS20Up9Pb/IXel1qVgEI8G29LlL72UdMMevIWA3VWNy3X0JdLgiWlcfXW1b48eIwjnJtJm6xfntofsbLdj67a2+poazx0LVWmptlHFN22/nayuKA8bsdpa54XHrUe9NlBKpj+zOBlyL37HHnrxtyHPoJgIKPsj/era0zCP+kW/9DJ3bses2/zi/cJxYz0er20d5hc/EMLR89Ruh5hl/UcyJtjC9zIY6KRG3yf/dfGHAY9ILITbzyM4W0EVtmUvGj9m/C6rz7H/wVtYnPmSXsHq4mS99Maamu9JT15HV8Q079BJF14a9tDDY0lNJDBACOAJWm/FdA8P3GbulU+ruvHA0B9ldXb9A4ZEbz7SpSBq2fdPrqnR+t61K2u/8GKaQr8dbOMY9Kb/2z30PmHChMFYgIa5aeO6dKAg3+cWzb/rGndeeVUNPf4R7vAs+1VMdU33KeM/fcL7BONBsQy99MfxPflxfSLgaaiuOxvMr3eHe/mx/8LLZ5199uNecdkL6x899JLsAaJmEiABN4Gz5s59BR+9kGF333nLPnkwL2tZxt+xr/YSLHB6yTbMSvQuZ2CRk+5rV33U9Xpsu26rETdEqYbfe7P0pwPTVk9is5Y5uucE4/uDl1944ej6MTV/x7hxK147+0zn9u0nZmp4MeR9+diamvvxatybibqsr1xfko+PfsIge64VwA55j+D6+xviv5Soo98vOI21u6MvgdPd4LQS7/vXooc/HbvyHe6XxxUei5jqfIxcpNxMyZWPXhCgQedlQAI5JCA3KtwcH8PNcZZusdLzQVqZb4XADOlmTJEOU5r7+iQJqwgf9fkPNgeVPmF3dnWCrfaWpTBWGC62J+M3TKdsS16hM3oNepjKw9IVUca/xWzjNZx6apuBhXdId/FOTpg8CMDLNNTNa1pb9fdfCOsEDQ65h4aSikhgIBEoMdVPcL6h90CwqqdDW6/CV6xKzMsGEnfnueKVLMyh21mZp8XCx1ZnWcmOMbz86LA9Rv0pWZpCiJMRBGWqpGsJMq0nrt/XSit3y2oZmdax0PNzUVyhtxDr1+8IvN3auhJLzReGemJKNZvlZdPw7u5/pdSLd4vN0tLDWlpaXkyZth8nwLDHDeC1IdRTVObPh5aYU2Gc2lPpxVD0rQcdesjX0vkiGh4ENkOeg45b8ABxMYztLMgJJSWRI82IeZxpmGdgVvhCxN+IdH9Dmg9T1SdVPD4Z+xMpL1W6dOLB621sWXv06tWrt6STn3l2Ekg9fEJSJEACoRPYyx7znffUO1MxHvnZjJUr1RQpKz2yqamp/cADD7zq4w8+Oga9T5/duNQrlRHz2BXNzck+eoH7a/93q9vb38Vit9MwIvwXnG3GnRulzJvWtrf+u5DDQsY5sZj1JA49WcIw/hhz09dDJLmWQ543kPBhrAD/w9stLa/AUAcYzDaMsdXVjRgWOhGL076GqQZZaBn4nGefc87Fi+5cgI1r7JO0Kq2RCIDaVFnpUVhR/4FGciZJQiBwgybRxSgSIAFNAs93PP/Jbqb6Cu73z2tm8UqGF3vVopLyssPEmEsC6e2ZZSWnIdzj5qj+XjKobGZu3+/1qnbhhMU/iaqM01Gj7enWKt77NdWchDEXPU2trU/BAHsNH8eUYZ4rxtyvvL322ks+wxqvD9qxG/rvUaUlU5BnMuQ/ZI45qDGXsta0tzc1t7fjoaNtesmgclmsJr33zb31MG2Pa6Y3Nn4ga0Bmnzv3VFy3lyJvV9/Y4D6c229LK3Y7EMa8LXjuMHP0j1XuNOhhXhPURQIBCKxsbX2vcujgmbg5ypz6tgBZkVS9gtXA03FznrNzPvjT3PLuMObpj8QN13mD/j2M+b8g7ac38E+z9DnCDnWaw7MqWS/fodPUS6cMvXS6w8em4Tx/R336Hra0tz9oGqWHwsAt7RuT3Ae++AS6cTOG2Ce0tLUtcqeG8cXrXuqq3nCldkRU5OS1Ha3ze8M8DnbutR45VoxmpLysYW1H2yx8cOV1j6RpB8m2rqjfJdBfbSrzIjxknIchdRlRSOnEqLd0tP3UKIkcjN71aykzeCRAvnVg8U2c2ylvvfWW1iY/fdQoW+9asfXSYbOl9X30+3v0N4by15G1GA65Zw0tFZNAagIrVqyQXs5l2Ff7puiOrrNxo/syhjNl05eKPrnxWUz0ZvDutPqjaZQ83NTeJMOvvk7m6cfV1h4ZjRnXKtNYNmvu3P/SfRVoyLBh927ZsGF/lDXFtwDbeK80Yn5qrHwTGkbpbuW3dX3ySQPqP943mTJaMK//377xjgisuJ4XM9QgTCvs4Qjue2irVysGD76vb6C/r7mj+Z+IPaK+un4Gdh39Bl4lOArj2WMR5uz0yELGDTDkTylbPTwkov78akvLRn+thgHDdw1e4dqANp2Jh6wb17S2aI3ItHS0PA29Ill1PQ94t6ZTCB4yxJhPxYYxhwPMHDA7FUP5Q5LoiuGaehzX48JIWdkjKLszSdqkUdjB7qd2d/cIXFM1vgmVsbK8ouJ233hHhFlefif2dRiHKbCJjuC+h8p4z7RLr+wbWFg+3D8K29Wdefs2QO57c0tS5QMOPXgr/uD0P4CRRJczavu2bcaq15PeQ53JAx+XVQwxygePCJwvrAzDh1Uao0aEjq23emtWrjI2b9zU6w/z4LOHBduka5+GqkG/OnZc2jeTMOvup0s2Lenq6hoRiUS2l5eXb+ox/H7JGZ4FArKRzPLly0fCSOHhwdiEaQ1ZiBZo3joL1SpYlbIhzrqS9yZEYzEYWbMaFd0bRn6jraw2zPu3l+622+pVq1YVdA+3YOFqVow9dE1QTEYCuSTQs9qXK35zCd1V1uLFi9GjNHqnH2DMXSnodRKQdSHwv9ojzige54iAczgpR0WyGBIgARIgARIggbAJ0KCHTZT6SIAESIAESCAPBGjQ8wCdRZIACZAACZBA2ARo0MMmSn0kQAIkQAIkkAcCNOh5gM4iSYAESIAESCBsAjToYROlPhIgARIgARLIAwEa9DxAZ5EkQAIkQAIkEDYBGvSwiVIfCZAACZAACeSBAA16HqCzSBIgARIgARIImwANethEqY8ESIAESIAE8kCABj0P0FkkCZAACZAACYRNgHu5h02U+kiABPorgQhObDhEPtDS+83y/nqyPK/iI0CDXnxtxhoXPwH5u6uFNPSIGAn5omBlj4jhkA+zyLfL5fOcb0KWQ4J/NxqZPNwXESZfwwrD7YCSBwIoknMcA5HyRUZCdoPI+YvIMb7GGT9vOXcR+Va1fA98NSSXXzvbD+WdBDkCcgBE2sn5hRb5ctgqyFLIXyDPQoLUbxTSfwXidK/B84ozIM3jWcjnHIF9H/6/BtAlbSPXidP9A563nAEpjo9B/J4p0uhGv4eEjydJfC7ipH1y4bQ+85uLirjLoEF3E6GfBLJL4H6oPxUiRjuoa0KGhZAFkHch6bp/Q0a3IUlXlzxk6Br0d5B273QLQr5NkJcgYlgWQdZCsuHkO/A3QMQgOQ24uyx5GDm8Ry7D79uQSyB/hOg4eaC7y5XwP+EPw6DfCT2lDt1LcBzEoB+A9O66XYCwIAZdmMyAhOGegpJkBv1SxI8NoyANHQVr0J1PcBrnwSQkQAIZEpBeWTrGXIpthFwLaYVcBUlXD7LmxWXagxqKWn8JIue+BvJIjx8/obnvQ5M8NPwLJJkx9ypwHAIHe0UwjARyQYAGPReUWQYJhEtARtbmQZ6GVEGKxdkhVlTuXcdDnoBIj1h6y5m6K6HgZ5AyD0U7ECYPETL10QGJQdyuEwHykEFHAnkhIDcGOhIggdwRcBs1MQKzIDKU2QaRxVZRiMw91vTIifg9GeLukctwrwx3nwCxIJm4nyKzl5FKpXNbqgSOeHePV0YaboGIoWyBiC45f2E0okd2x+9BkCMgB0K87lly/q9BzoQsgaTjZK78ao+Mf0bYTZBnIdJWCSf1kOmD6ZBvQWZA5OFiM4TOm4BcX3KdpeOaUmS6DfG6D3XnIO1ohz655v7H4S/aQ68/jqI9GVacBIqQQDfq/JBHvdsRJvIc5DeQBshVEDH+TnccPBK20BmYxvGVyOM0WGmoCJxlNXL4zUd2OLQt7jkegl8xnt+DiDF1un3gkTnioyDPOiM0jiuQ5uce6S5E2P96hEuQPHTJA9h9PTIRv6KHzp+AGPTL/aMzipGRFV0nfzNOg74d/mzVS7dOoaSTYSs6EiCB3BFw99B1S25GwtkQ6S26nfQsB8LfsvR+b4TUQ+QBxII4XTk8f4DIw08QJ6Mf1a4M98LvZ8xdSePeVfh3uVcEw0ggVwQGwk0gVyxZDgnkgsBlKERWUztdDTwHOwP6+XEXzu9ayLGQDa5zlUWHj0EqXeHJvDLc7nTy0CWjAHQkUFQEaNCLqrlY2X5AIN0eeuLUxZgtTHgcvzMdx4V6mOm5u8/rcQR8DSLD304nw99BDPJkZ2Ycy3ytvI5HRwJFRYAGvaiai5UlgTgBmVd3uz3cAQXoV1mo09PQ+UMPvT9AmCys03F7uxJ97PLTSwJFQYAGvSiaiZXsRwTC6KV+4MFDdlgbqE5WKK90nfxQ+C91hfl5ZdTD6T4DD++NTiL96ziMv8GCJMKLtiCbhZXqxwTCuJl4vXteDL3KMM7d69IQvT/xiDjLI8wryLmiXuJl/n2GV0KGkUAhE6BBL+TWYd1IwJvAJI/gVzzCCi0oG0PuiXO8Hwey77vT7QWPe37cGZ84fipx4PhdiOPhDj8PSaDgCdCgF3wTsYL9jEAYvdTTXEy2wu9llFzJ8u4N49z9TkIWxj3jEXm0R5g76G53APy1kEch8lBARwJFQYAGvSiaiZUkgV4Cx+BIxOl+Ac96Z0CBHmezhy6nvMTjvA/1CHMHvYSAh9yB8MtOfCsgF0HKIHQkUNAESgq6dqwcCfQ/Apn0UsXAPOBCIu9hy2YrmbpSKLDSUNKdRp5sZXnTQ/EwjzCvINmBbn/IRFekDLvfDPkR5OeQuyDCPFtuDBRPC0F5th+eQqgiVYRNgAY9bKLURwLhE2iAyusgMtTuvFHLlpWnQtxzxwgK7LYEzrEzgxg83fIzeZjRqZ7XwsDBOhmRZhPkS5A/QaZA3E4M7c8g0g73QGRUxOsBAsEZudnILdIfXQQnJaMdQd1qZHgyaKaBmJ4GfSC2Os85nwTcRk3+Bs92VUiM9hDInpCDIZ+HSA/a6eRDJsdBnnYG5uHYfT7JquB8GEmWLt04r2kH4ajrOpBQWIvhPg/iVV95PVB68yIPQy6HuF+ZQxCdBwEx6DLaEdTdiww06BrUaNA1IDEJCYRIwG0AB0H3ggD65QMX90Oug7wVIF+2krrPJ1vl6OgVNm4XdQek8MsCw/MhslBOGM+E+LmvIuJ4yH9DroK432dHEF0BEiikazZUPDTooeKkMhLIKgH5OMmRkOVZKOX1NHUGMZjZvpF6fT5TmKXjnkMmYS3rFsTAnwzx2rxHep0yv/5FiOwtn+mWsR9Dx4eQTN2+mSpg/uIjQINefG3GGhc3gUyMmgwfy/7lMsx7R8gYpkJfJnULuTppqfPa6jVdg56ogBh2kYshZ0AugMhOcm73OQQ8DTkMkkmZtyH/FZBMnYwWlGaqJOT8MoIi125QJ28a0GkQoEHXgMQkJJBlAodAf6ejjEocy2rrSRAZ1pVFcQk3Cge/hshucbLqupic15x0mPWXNQdut9EdkKZf9NwCuRVyAkTeLBgLcbr94Lkd8k1nII97CYhB/2mvjwehEzBD10iFJEACyQh49YJfR4bXHPIPHMu8+r9DxKhfA5Eel9PJwq2jnAFFcOx17mFWW3rHbrfMHZChX87hj5DJkHs9dJ2GsIM8whlEAlknQIOedcQsgAQyIrADua+CzHFpkd6uLMbKdq/XVWxBe4/wqN3/eYSFESTtMgfysocymXOnI4GcE6BBzzlyFjjACaTbS/0NuEnP0Olk3luGf4vFZfPhY29AkCFvp1sPj4x8ZMvJEPJ5EHebfiFbBVIvCSQjQIOejA7jSKCwCNzgUR3ZWIZu56I1N4e/ICCd3e/cepL5X0VkhytBPfyy+p2OBHJKgAY9p7hZGAns0psLguRFJH7bleE4+MtcYYXqdfdkw6rnUCj6tocymZLIhXvLVYiMRAx3hdFbOASydR3m/Qxp0PPeBKzAACOQ6c3kCRcvMWaym1wxuGwNuV+Dkx/iAvAI/NkcbncWt87p6TmWDWroSCCnBGjQc4qbhZFAxgSWeGj4vEfYQAmSV8Qu9jjZ6zzCshU0xqVYNoeRRXN0JJBTAjToOcXNwkggoyF3wfesB8OBatCPBIs7PXj8D8L+n0d4NoJGQKnsI+B0S5weHpNArgjQoOeKNMshgXAIvA81TS5V0+DP1nC2q6iMvJlONzgL/z48Mv1Q4QzE8QuQH7rCsum9EspLXAX81uWnlwRyQoAGPSeYWQgJ9BIIw6i5e+myAMv9ylZvgQV0EMZDx0ycz5MQ2VjHbUhlqFtW/XdDgrgrkFiG7oPeDy9Cnu+6CnoD/sWuMHpJICcE3H8QOSmUhZAACWRE4Gnknu3ScAz8mex5PQb5033Y+AR5xZhmw8lDwGTITIjswua1GxyC4+d+Cn7bxRPAlSPtDyCyuPBqyH2QhyCrIH48voA4eYXQvRhRHiTEyMv76XQkkHMCNOg5R84CBzgBPyMRBIus4I5CnH+/X4Nfeq3purZ0MyLfY5CvpJFf5p5lJzdZEb6l51cWk4lxlS+nicie9jJPncwtQuSFkO3JEvnESb2lPHHjIPN6RPZuXw55D7IBInUYC2mESL283LkIXOoVwTASyAUB5w0hF+WxDBIY6ATCMOjSG5ZhZ+mVJ5z0XPeEvJ8IKIJfMaTS203XPYuMN0L+mK4C5HP3shOqhuFAt26yI90cyKMQusInEMbfYEGepVmQtWKlSIAEUhF40JVA/pZPdIX1R6/0wmVY/HOQ6ZBMjDmyG5dCjoLIA1LQXeVkNOF/IftDaMwBgS6/BNhDzy9/lj7wCEhv7l3XaafTY/gDdFwBcW4xKr3N2126vbzNCJQtS8Nyok/HvYlE1RAZsnbW2yuvMNkC+QiyDCJfoBN5BSLTDWE6GfYXkRGOkyDyoHAQpAEic/gJF8OBDMHLyMASiLTBh5B0naw9ECZOl4k+p5418Djv7x3OSI1jmQZx70q4SSOfM4mU6dTR5YzM47FcU86/wQ15rEuoRTsbPFTFVEYCJOBJQOZ6RTJ1cnMdm6aS76aZL9NsYiTFiZEc3iOl+JX7kIiMMogRl4cemcMWA5pLJ9MVt/SIlCsPHTL0PhgivKVO6Tx8IZun+ydCJ3nGZB64X4YqnkL+8RnqOCPD/NnK7pyqylYZedFLg54X7CyUBAY0ATGKYrRFCtnJA4WsVxChI4GCJ8A59IJvIlaQBEiABEiABFIToEFPzYgpSIAESIAESKDgCdCgF3wTsYIkQAIkQAIkkJpAERh0+6XUp8EUhU9AhbmYKIPTVctH7jY214utMqgvs5IACZCAHoGCN+gt915wpFKRLxtKySsrOXPKUJZS6lXIL1XEPPndd947KmeF98OC6sePO0mZxglKGTdiifNLkLBfPUpBTS1Xyjzh99+ZeuC8I1WOy05RNUaTAAmQQAgEimKV+9p7z/sbzvVv9Wfc/mVbGVcZti1flwrVwdB027bxMgz5Urw9s9QsrXxu8fmNve9dNs6+48BQCxxgysrKy7auvecCacdH5dT3P+vuyi125zS05Qy8CTQD7XowjgeFj0Utj5jq6sUXTpHtUulIgARIoN8SKAqDnqC/9r7z5XOJT8QNe3zPZdvvQw2JLL6/6CF+gl7/C8qwlyrTXDrc3P2FX5+/t+xCRZcDAq/fM2sbiok/qElxY//1z+WxDe9gYxRretzIKzXNtm15/zdNR0OeJjhmIwESKFICRWXQE4wThr3urF8fbVj2VejhpTTsMOCbsZ3Fc9jTYqkyIkvV7ubLi0+dVCg7FyVObcD+rvnVsZ04+Wd65PpTHnoosuzR9QdgG48ZGDmZYRtqOto51Uc6kJ2GfMBeRDxxEhjgBIrSoCfarOWebz2O48fjht225uHmf2giDsZ7nWGrZ0zTXhqJmEv3/db+r85TyuqN50FBE1h86qmycO3lHrkJvXU1dtb8SbZlwbjHh+hnoCe/16cnQUP+KQsekQAJDEQCRW3QEw2WMOyNZ952DBaxjSlVJc89eNHklYn4+O/5fXz0FBkBtKuskn+jR26V6jeeeedY27YwB682YLGb7KtNRwIkQAIDlkC/MOiJ1mu694K/Nt2b8PG3vxNouvdc+QDFmmb59hYdCZAACQxwAgX/2toAbx+ePgmQAAmQAAloEaBB18LERCRAAiRAAiRQ2ARo0Au7fVg7EiABEiABEtAiQIOuhYmJSIAESIAESKCwCdCgF3b7sHYkQAIkQAIkoEWABl0LExORAAmQAAmQQGEToEEv7PZh7UiABEiABEhAiwANuhYmJiIBEiABEiCBwiZAg17Y7cPakQAJkAAJkIAWARp0LUxMRAIkQAIkQAKFTYAGXbN9KioqmvGt9Huwb7h8NIROl4Dswa6M3xox85+6WZiOBEiABEggOAF8VZQuCIGGOXeNs6OdV+DjX2fgc56RIHmTpS2rGGKUD9b4OmgyJRnEDR9WaYwaUZWBBldWGHJ8a/63JaZ5zYPfniIfVaEjARIgARLIIgEa9DThype+LCMGw26cGYZh7zcGvceQ49O1V//uO1NXpImX2UiABEiABAISoEEPCMydPGHY8W3uM/B9z7S/XlfsBh3TEVZ8aN02rqEhd18l9JMACZBA9gnQoIfEeOzs2xujUfsKAD0zHcNerAa9x5AvNiOl1yy+YNKbIeGkGhIgARIggYAEaNADAkuVPF3DXmwGnYY81ZXAeBIgARLILQEa9CzxHj93QUNXV/cVyrbP0umx592gD6/sHjW8qjQVDjHkOJ+HSlXkmgcvmrwyVXrGkwAJkAAJ5IYADXqWOccNe3f3j2EGZyUz7GWVQ3eUVw0flOXq+KofNqxi0+4jBg/1S7CzR24/WGKUXEtD7keJ4SRAAiSQPwI06Dlin8qwl1cNW1dWOWxUjqqzSzFDh1a8N3rk4L3cEQlDbpRErvnd+fuvcsfTTwIkQAIkUBgEaNBz3A4TzrqjvsuO/diwjdnOHjt65y3opdfluDq9xQ0ZUtG0x6jBjYmAuCE37AeM0si1NOQJKvwlARIggcIlQIOep7bZadity1H8bNu2S7GpzBuYR/9MnqpjDK7a7Z97jh4ymYY8Xy3AckmABEggMwI06Jnxyzj3xDl31XVGu35cXjVy39KKqsMzVpimgsqqQS/svcewpohS1y6+cMrqNNUwGwmQAAmQQJ4I0KDnCby72Mk/emZ4xIj6Lkpzpw/bHxk0eOuyeQetC1sv9ZEACZAACZAACZAACZAACZAACZAACZAACZAACZAACZAACZAACZAACZAACZAACZAACZAACZAACZAACZAACZAACZAACZAACZAACZAACZAACZAACZAACZAACZAACZAACZAACZAACZAACZAACZAACZAACZAACZAACZAACZAACZAACZAACZAACZAACZAACZAACZAACZAACZAACZAACZAACZAACZAACZAACZAACZAACZAACZAACZAACZAACZAACZAACZAACZAACZAACZAACZAACZAACZAACZAACZAACZAACZAACZAACZAACZAACZAACZAACZAACZAACZAACZAACZAACZAACZAACZAACZAACZAACZAACZAACZAACZAACZAACZAACZAACZAACZAACZAACZAACZAACZAACZAACZAACZAACZAACZAACZAACZAACZAACZAACZAACZAACZAACZAACZAACZAACZAACZAACZAACZAACZAACZAACZAACZAACZAACZAACZAACZAACZAACZAACZAACZAACZAACZAACZAACZAACZAACZAACZAACZAACZAACZAACZAACZAACZAACZAACZAACZAACZAACZAACZAACZAACZAACZAACZAACZAACZAACZAACZAACZAACZAACZAACZAACZAACegQ+P9tLWkhQMUZ8gAAAABJRU5ErkJggg==;" parent="1" vertex="1">
          <mxGeometry x="40" y="20" width="980" height="70" as="geometry" />
        </mxCell>
        <mxCell id="2048" value="Business&amp;nbsp;&lt;div&gt;Analytics&lt;/div&gt;" style="rounded=1;whiteSpace=wrap;html=1;dashed=1;strokeColor=none;strokeWidth=2;fontFamily=Helvetica;fontSize=14;fontColor=#FFB366;opacity=75;verticalAlign=top;fontStyle=1;" parent="1" vertex="1">
          <mxGeometry x="750" y="195.04" width="140" height="164.96" as="geometry" />
        </mxCell>
        <mxCell id="2050" value="SQL Reporting" style="verticalLabelPosition=bottom;html=1;verticalAlign=top;strokeColor=none;fillColor=#3399FF;shape=mxgraph.azure.sql_reporting;dashed=1;fontSize=14;fontColor=#004C99" parent="1" vertex="1">
          <mxGeometry x="788.8" y="260" width="62.39" height="51.25" as="geometry" />
        </mxCell>
        <mxCell id="2071" value="Web Dashboards" style="verticalLabelPosition=bottom;html=1;verticalAlign=top;strokeColor=none;fillColor=#3399FF;shape=mxgraph.azure.laptop;dashed=1;fontFamily=Helvetica;fontSize=14;fontColor=#004C99" parent="1" vertex="1">
          <mxGeometry x="1010" y="230" width="50" height="30" as="geometry" />
        </mxCell>
        <mxCell id="2072" value="Certificates" style="verticalLabelPosition=bottom;html=1;verticalAlign=top;strokeColor=none;fillColor=#3399FF;shape=mxgraph.azure.certificate;dashed=1;fontFamily=Helvetica;fontSize=14;fontColor=#004C99" parent="1" vertex="1">
          <mxGeometry x="1298" y="409.25" width="50" height="40" as="geometry" />
        </mxCell>
        <mxCell id="2073" value="Enterprise&lt;div&gt;Services&lt;/div&gt;" style="verticalLabelPosition=bottom;html=1;verticalAlign=top;strokeColor=none;fillColor=#3399FF;shape=mxgraph.azure.enterprise;dashed=1;fontFamily=Helvetica;fontSize=14;fontColor=#004C99" parent="1" vertex="1">
          <mxGeometry x="1020" y="401" width="30" height="50" as="geometry" />
        </mxCell>
        <mxCell id="2074" value="Seminars" style="verticalLabelPosition=bottom;html=1;verticalAlign=top;strokeColor=none;fillColor=#3399FF;shape=mxgraph.azure.user;dashed=1;fontFamily=Helvetica;fontSize=14;fontColor=#004C99" parent="1" vertex="1">
          <mxGeometry x="1301" y="640.25" width="47.5" height="50" as="geometry" />
        </mxCell>
        <mxCell id="2075" value="" style="arrow;html=1;endArrow=block;endFill=1;strokeColor=none;strokeWidth=4;fontFamily=Helvetica;fontSize=36;fontColor=#FFB366;fillColor=#FFB366;" parent="1" edge="1">
          <mxGeometry width="100" height="100" relative="1" as="geometry">
            <mxPoint x="168.5" y="454" as="sourcePoint" />
            <mxPoint x="248.5" y="454" as="targetPoint" />
          </mxGeometry>
        </mxCell>
        <mxCell id="2077" value="" style="arrow;html=1;endArrow=block;endFill=1;strokeColor=none;strokeWidth=4;fontFamily=Helvetica;fontSize=36;fontColor=#FFB366;fillColor=#FFB366;" parent="1" edge="1">
          <mxGeometry width="100" height="100" relative="1" as="geometry">
            <mxPoint x="640" y="464.54" as="sourcePoint" />
            <mxPoint x="720" y="464.54" as="targetPoint" />
          </mxGeometry>
        </mxCell>
        <mxCell id="2080" value="" style="arrow;html=1;endArrow=block;endFill=1;strokeColor=none;strokeWidth=4;fontFamily=Helvetica;fontSize=36;fontColor=#FFB366;fillColor=#FFB366;" parent="1" edge="1">
          <mxGeometry width="100" height="100" relative="1" as="geometry">
            <mxPoint x="996" y="250" as="sourcePoint" />
            <mxPoint x="916" y="250" as="targetPoint" />
          </mxGeometry>
        </mxCell>
        <mxCell id="_JJxdnKlNdLemzVeChPx-2099" value="Text" style="edgeLabel;html=1;align=center;verticalAlign=middle;resizable=0;points=[];fontColor=#7EA6E0;" vertex="1" connectable="0" parent="2080">
          <mxGeometry x="0.4723" relative="1" as="geometry">
            <mxPoint x="-1" as="offset" />
          </mxGeometry>
        </mxCell>
        <mxCell id="2082" value="" style="arrow;html=1;endArrow=block;endFill=1;strokeColor=none;strokeWidth=4;fontFamily=Helvetica;fontSize=36;fontColor=#FFB366;fillColor=#FFB366;" parent="1" edge="1">
          <mxGeometry width="100" height="100" relative="1" as="geometry">
            <mxPoint x="420" y="451.28999999999996" as="sourcePoint" />
            <mxPoint x="500" y="451.28999999999996" as="targetPoint" />
          </mxGeometry>
        </mxCell>
        <mxCell id="2083" value="" style="arrow;html=1;endArrow=block;endFill=1;strokeColor=none;strokeWidth=4;fontFamily=Helvetica;fontSize=36;fontColor=#FFB366;fillColor=#FFB366;" parent="1" edge="1">
          <mxGeometry width="100" height="100" relative="1" as="geometry">
            <mxPoint x="612" y="624" as="sourcePoint" />
            <mxPoint x="692" y="624" as="targetPoint" />
          </mxGeometry>
        </mxCell>
        <mxCell id="2084" value="" style="arrow;html=1;endArrow=block;endFill=1;strokeColor=none;strokeWidth=4;fontFamily=Helvetica;fontSize=36;fontColor=#FFB366;fillColor=#FFB366;" parent="1" edge="1">
          <mxGeometry width="100" height="100" relative="1" as="geometry">
            <mxPoint x="1250" y="740" as="sourcePoint" />
            <mxPoint x="1330" y="740" as="targetPoint" />
          </mxGeometry>
        </mxCell>
        <mxCell id="2085" value="" style="arrow;html=1;endArrow=block;endFill=1;strokeColor=none;strokeWidth=4;fontFamily=Helvetica;fontSize=36;fontColor=#FFB366;fillColor=#FFB366;" parent="1" edge="1">
          <mxGeometry width="100" height="100" relative="1" as="geometry">
            <mxPoint x="174" y="688" as="sourcePoint" />
            <mxPoint x="254" y="688" as="targetPoint" />
          </mxGeometry>
        </mxCell>
        <mxCell id="_JJxdnKlNdLemzVeChPx-2086" value="" style="shape=image;verticalLabelPosition=bottom;labelBackgroundColor=#ffffff;verticalAlign=top;aspect=fixed;imageAspect=0;image=data:image/svg+xml,PHN2ZyB4bWxuczpjYz0iaHR0cDovL2NyZWF0aXZlY29tbW9ucy5vcmcvbnMjIiB4bWxuczpkYz0iaHR0cDovL3B1cmwub3JnL2RjL2VsZW1lbnRzLzEuMS8iIHhtbG5zOmlua3NjYXBlPSJodHRwOi8vd3d3Lmlua3NjYXBlLm9yZy9uYW1lc3BhY2VzL2lua3NjYXBlIiB4bWxuczpyZGY9Imh0dHA6Ly93d3cudzMub3JnLzE5OTkvMDIvMjItcmRmLXN5bnRheC1ucyMiIHhtbG5zOnNvZGlwb2RpPSJodHRwOi8vc29kaXBvZGkuc291cmNlZm9yZ2UubmV0L0RURC9zb2RpcG9kaS0wLmR0ZCIgeG1sbnM6c3ZnPSJodHRwOi8vd3d3LnczLm9yZy8yMDAwL3N2ZyIgeG1sbnM9Imh0dHA6Ly93d3cudzMub3JnLzIwMDAvc3ZnIiB4bWxuczp4bGluaz0iaHR0cDovL3d3dy53My5vcmcvMTk5OS94bGluayIgdmVyc2lvbj0iMS4xIiBpZD0ic3ZnNjQyMyIgaW5rc2NhcGU6dmVyc2lvbj0iMC45Mi4zICgyNDA1NTQ2LCAyMDE4LTAzLTExKSIgc29kaXBvZGk6ZG9jbmFtZT0ia3ViZXJuZXRlcy5zdmciIHg9IjBweCIgeT0iMHB4IiB2aWV3Qm94PSIwIDAgMzQuNyAzMy43MSIgc3R5bGU9ImVuYWJsZS1iYWNrZ3JvdW5kOm5ldyAwIDAgMzQuNyAzMy43MTsiIHhtbDpzcGFjZT0icHJlc2VydmUiPiYjeGE7PHNvZGlwb2RpOm5hbWVkdmlldyBib3JkZXJjb2xvcj0iIzY2NjY2NiIgYm9yZGVyb3BhY2l0eT0iMSIgZml0LW1hcmdpbi1ib3R0b209IjAiIGZpdC1tYXJnaW4tbGVmdD0iMCIgZml0LW1hcmdpbi1yaWdodD0iMCIgZml0LW1hcmdpbi10b3A9IjAiIGdyaWR0b2xlcmFuY2U9IjEwIiBndWlkZXRvbGVyYW5jZT0iMTAiIGlkPSJuYW1lZHZpZXc2NDI1IiBpbmtzY2FwZTpjdXJyZW50LWxheWVyPSJzdmc2NDIzIiBpbmtzY2FwZTpjeD0iMjMuMTM1NjMyIiBpbmtzY2FwZTpjeT0iMjIuNDcxOTk0IiBpbmtzY2FwZTpwYWdlb3BhY2l0eT0iMCIgaW5rc2NhcGU6cGFnZXNoYWRvdz0iMiIgaW5rc2NhcGU6d2luZG93LWhlaWdodD0iMTAxNyIgaW5rc2NhcGU6d2luZG93LW1heGltaXplZD0iMSIgaW5rc2NhcGU6d2luZG93LXdpZHRoPSIxOTIwIiBpbmtzY2FwZTp3aW5kb3cteD0iLTgiIGlua3NjYXBlOndpbmRvdy15PSItOCIgaW5rc2NhcGU6em9vbT0iMTkuMjg4MzkzIiBvYmplY3R0b2xlcmFuY2U9IjEwIiBwYWdlY29sb3I9IiNmZmZmZmYiIHNob3dncmlkPSJmYWxzZSI+JiN4YTsJPC9zb2RpcG9kaTpuYW1lZHZpZXc+JiN4YTs8ZyBpZD0ic2hhcGUzNTA0LTIiIHRyYW5zZm9ybT0idHJhbnNsYXRlKDIuMjkwNDQ1NywtMi4yODk1MTk5KSI+JiN4YTsJPHRpdGxlIGlkPSJ0aXRsZTY0MDAiPlNoZWV0LjM1MDQ8L3RpdGxlPiYjeGE7CSYjeGE7CQk8cGF0aCBpZD0icGF0aDY0MDIiIGlua3NjYXBlOmNvbm5lY3Rvci1jdXJ2YXR1cmU9IjAiIHN0eWxlPSJmaWxsOiNGRkZGRkY7c3Ryb2tlOiNGRkZGRkY7c3Ryb2tlLXdpZHRoOjQuNTgxO3N0cm9rZS1saW5lY2FwOnJvdW5kO3N0cm9rZS1saW5lam9pbjpyb3VuZDtzdHJva2UtbWl0ZXJsaW1pdDozOyIgZD0iICAgTTE1LjA2LDQuNThsMTIuMDgsNS43N2wyLjk4LDEyLjk2bC04LjM1LDEwLjRIOC4zNkwwLDIzLjMybDIuOTgtMTIuOTdMMTUuMDYsNC41OHoiLz4mI3hhOzwvZz4mI3hhOzxnIGlkPSJzaGFwZTM1MDUtNCIgdHJhbnNmb3JtPSJ0cmFuc2xhdGUoMC44OTgyMTU3MSwtMC44ODg1OTk4NSkiPiYjeGE7CTx0aXRsZSBpZD0idGl0bGU2NDA1Ij5TaGVldC4zNTA1PC90aXRsZT4mI3hhOwk8cGF0aCBpZD0icGF0aDY0MDciIGlua3NjYXBlOmNvbm5lY3Rvci1jdXJ2YXR1cmU9IjAiIHN0eWxlPSJmaWxsOiMzMjZDRTU7IiBkPSJNMTYuMzQsMS43OEMxNi4wNSwxLjgsMTUuNzYsMS44NywxNS41LDJMNC4wNiw3LjQ2ICAgYy0wLjYsMC4yOS0xLjAzLDAuODMtMS4xOCwxLjQ3TDAuMDYsMjEuMjFjLTAuMTQsMC41OC0wLjAzLDEuMTcsMC4yOSwxLjY3YzAuMDQsMC4wNiwwLjA4LDAuMTEsMC4xMywwLjE3TDguNCwzMi45ICAgYzAuNDEsMC41MSwxLjA0LDAuODEsMS43LDAuODFoMTIuN2MwLjY3LDAsMS4zLTAuMywxLjcxLTAuODJsNy45Mi05Ljg0YzAuNDEtMC41MiwwLjU3LTEuMiwwLjQyLTEuODRMMzAuMDMsOC45MyAgIGMtMC4xNS0wLjY0LTAuNTktMS4xOC0xLjE5LTEuNDdMMTcuNCwyQzE3LjA3LDEuODQsMTYuNywxLjc2LDE2LjM0LDEuNzh6Ii8+JiN4YTs8L2c+JiN4YTs8ZyBpZD0ic2hhcGUzNTA2LTYiIHRyYW5zZm9ybT0idHJhbnNsYXRlKDAuODk4MjE1NzEsLTAuODg4NTk5ODUpIj4mI3hhOwk8dGl0bGUgaWQ9InRpdGxlNjQxMCI+U2hlZXQuMzUwNjwvdGl0bGU+JiN4YTsJPHBhdGggaWQ9InBhdGg2NDEyIiBpbmtzY2FwZTpjb25uZWN0b3ItY3VydmF0dXJlPSIwIiBzdHlsZT0iZmlsbDpub25lOyIgZD0iTTE2LjM0LDEuNzhDMTYuMDUsMS44LDE1Ljc2LDEuODcsMTUuNSwyTDQuMDYsNy40NiAgIGMtMC42LDAuMjktMS4wMywwLjgzLTEuMTgsMS40N0wwLjA2LDIxLjIxYy0wLjE0LDAuNTgtMC4wMywxLjE3LDAuMjksMS42N2MwLjA0LDAuMDYsMC4wOCwwLjExLDAuMTMsMC4xN0w4LjQsMzIuOSAgIGMwLjQxLDAuNTEsMS4wNCwwLjgxLDEuNywwLjgxaDEyLjdjMC42NywwLDEuMy0wLjMsMS43MS0wLjgybDcuOTItOS44NGMwLjQxLTAuNTIsMC41Ny0xLjIsMC40Mi0xLjg0TDMwLjAzLDguOTMgICBjLTAuMTUtMC42NC0wLjU5LTEuMTgtMS4xOS0xLjQ3TDE3LjQsMkMxNy4wNywxLjg0LDE2LjcsMS43NiwxNi4zNCwxLjc4Ii8+JiN4YTs8L2c+JiN4YTs8ZyBpZD0ic2hhcGUzNTA3LTkiIHRyYW5zZm9ybT0idHJhbnNsYXRlKDUuMjkwMzg1NywtNS4wNzA3OTk5KSI+JiN4YTsJPHRpdGxlIGlkPSJ0aXRsZTY0MTUiPlNoZWV0LjM1MDc8L3RpdGxlPiYjeGE7CSYjeGE7CQk8cGF0aCBpZD0icGF0aDY0MTciIGlua3NjYXBlOmNvbm5lY3Rvci1jdXJ2YXR1cmU9IjAiIHN0eWxlPSJmaWxsOiNGRkZGRkY7c3Ryb2tlOiNGRkZGRkY7c3Ryb2tlLXdpZHRoOjAuMDExMjtzdHJva2UtbGluZWNhcDpyb3VuZDtzdHJva2UtbGluZWpvaW46cm91bmQ7c3Ryb2tlLW1pdGVybGltaXQ6MzsiIGQ9IiAgIE0xMi4wNiwxMC4xNWMtMC4zOCwwLTAuNjgsMC4zNC0wLjY4LDAuNzZ2MC4wMWMwLDAuMDYsMCwwLjEzLDAsMC4xOGMwLjAxLDAuMjQsMC4wNiwwLjQzLDAuMDksMC42NWMwLjA2LDAuNDgsMC4xLDAuODgsMC4wNywxLjI0ICAgYy0wLjAyLDAuMTQtMC4xMywwLjI3LTAuMjIsMC4zNmwtMC4wMSwwLjI5Yy0wLjQxLDAuMDMtMC44MywwLjA5LTEuMjQsMC4xOWMtMS43OCwwLjQtMy4zMSwxLjMyLTQuNDcsMi41NSAgIGMtMC4wOC0wLjA1LTAuMjEtMC4xNC0wLjI1LTAuMTdjLTAuMTIsMC4wMS0wLjI1LDAuMDUtMC40MS0wLjA0Yy0wLjMxLTAuMjEtMC41OC0wLjQ5LTAuOTItMC44NGMtMC4xNi0wLjE2LTAuMjctMC4zMi0wLjQ1LTAuNDggICBjLTAuMDUtMC4wMy0wLjExLTAuMDgtMC4xNS0wLjEyYy0wLjE1LTAuMTEtMC4zMi0wLjE3LTAuNDgtMC4xOGMtMC4yMSwwLTAuNDIsMC4wOC0wLjU1LDAuMjRjLTAuMjMsMC4zLTAuMTYsMC43NSwwLjE3LDEuMDJoMC4wMSAgIGMwLjA0LDAuMDQsMC4xLDAuMDksMC4xNCwwLjEyYzAuMiwwLjE0LDAuMzgsMC4yMSwwLjU3LDAuMzNjMC40MSwwLjI1LDAuNzUsMC40NiwxLjAyLDAuNzFjMC4xMSwwLjEyLDAuMTIsMC4zMSwwLjE0LDAuNGwwLjIyLDAuMiAgIGMtMS4xOCwxLjc2LTEuNzIsMy45NS0xLjQsNi4xN2wtMC4yOSwwLjA5Yy0wLjA3LDAuMDktMC4xOCwwLjI1LTAuMjksMC4yOWMtMC4zNSwwLjExLTAuNzUsMC4xNS0xLjIzLDAuMiAgIGMtMC4yMiwwLjAyLTAuNDIsMC4wMS0wLjY2LDAuMDZjLTAuMDUsMC4wMS0wLjEyLDAuMDMtMC4xOCwwLjA0YzAsMCwwLDAtMC4wMSwwbDAsMGMtMC40MSwwLjEtMC42NywwLjQ3LTAuNTgsMC44NCAgIGMwLjA4LDAuMzYsMC40NywwLjU5LDAuODgsMC41aDAuMDFsMC4wMS0wLjAxYzAuMDYtMC4wMSwwLjEzLTAuMDIsMC4xOC0wLjA0YzAuMjMtMC4wNiwwLjQtMC4xNSwwLjYxLTAuMjMgICBjMC40Ni0wLjE2LDAuODMtMC4zLDEuMi0wLjM1YzAuMTUtMC4wMiwwLjMxLDAuMDksMC4zOSwwLjE0bDAuMy0wLjA2YzAuNjksMi4xNCwyLjEzLDMuODYsMy45NSw0LjkzbC0wLjEzLDAuMyAgIGMwLjA1LDAuMTIsMC4xLDAuMjgsMC4wNiwwLjM5Yy0wLjEzLDAuMzQtMC4zNiwwLjcxLTAuNjEsMS4xMmMtMC4xMywwLjE4LTAuMjYsMC4zMy0wLjM3LDAuNTRjLTAuMDMsMC4wNi0wLjA2LDAuMTMtMC4wOSwwLjE5ICAgYy0wLjE4LDAuMzctMC4wNSwwLjgxLDAuMjksMC45N2MwLjM0LDAuMTcsMC43Ny0wLjAxLDAuOTUtMC4zOWwwLDBsMCwwYzAuMDMtMC4wNSwwLjA2LTAuMTIsMC4wOC0wLjE3ICAgYzAuMS0wLjIzLDAuMTMtMC40MiwwLjItMC42M2MwLjE4LTAuNDYsMC4yOC0wLjkzLDAuNTMtMS4yM2MwLjA3LTAuMDgsMC4xOC0wLjEyLDAuMjktMC4xNWwwLjE2LTAuMjggICBjMS41OSwwLjYxLDMuMzcsMC43OCw1LjE0LDAuMzdjMC40MS0wLjA5LDAuOC0wLjIxLDEuMTgtMC4zNWMwLjA1LDAuMDgsMC4xMiwwLjIzLDAuMTUsMC4yNmMwLjExLDAuMDQsMC4yNCwwLjA2LDAuMzQsMC4yMSAgIGMwLjE5LDAuMzMsMC4zMiwwLjcsMC40OCwxLjE2YzAuMDYsMC4yMSwwLjEsMC40LDAuMiwwLjYyYzAuMDIsMC4wNiwwLjA1LDAuMTMsMC4wOCwwLjE4YzAuMTgsMC4zOCwwLjYsMC41NSwwLjk1LDAuMzkgICBjMC4zNC0wLjE3LDAuNDYtMC42LDAuMjktMC45N2MtMC4wMy0wLjA2LTAuMDctMC4xNC0wLjA5LTAuMTljLTAuMTItMC4yMS0wLjI0LTAuMzYtMC4zNy0wLjU1Yy0wLjI2LTAuNC0wLjQ3LTAuNzQtMC42MS0xLjA4ICAgYy0wLjA1LTAuMTgsMC4wMS0wLjI5LDAuMDYtMC40MWMtMC4wMy0wLjAzLTAuMDktMC4xOS0wLjEyLTAuMjdjMS45LTEuMTIsMy4yOS0yLjkxLDMuOTUtNC45N2MwLjA5LDAuMDEsMC4yNCwwLjA0LDAuMjksMC4wNSAgIGMwLjEtMC4wNywwLjItMC4xNiwwLjM5LTAuMTRjMC4zNiwwLjA1LDAuNzQsMC4xOSwxLjE5LDAuMzVjMC4yMSwwLjA4LDAuMzgsMC4xOCwwLjYxLDAuMjRjMC4wNSwwLjAxLDAuMTIsMC4wMiwwLjE4LDAuMDQgICBjMCwwLDAuMDEsMCwwLjAyLDBsMCwwYzAuNDEsMC4wOSwwLjgtMC4xMywwLjg5LTAuNWMwLjA4LTAuMzYtMC4xOC0wLjczLTAuNTgtMC44M2MtMC4wNi0wLjAyLTAuMTQtMC4wNC0wLjItMC4wNSAgIGMtMC4yNC0wLjA0LTAuNDMtMC4wMy0wLjY2LTAuMDVjLTAuNDgtMC4wNS0wLjg3LTAuMDktMS4yMy0wLjJjLTAuMTQtMC4wNi0wLjI0LTAuMjMtMC4yOS0wLjNsLTAuMjgtMC4wOCAgIGMwLjE1LTEuMDQsMC4xMS0yLjEyLTAuMTQtMy4yYy0wLjI1LTEuMDktMC42OS0yLjA4LTEuMjgtMi45NmMwLjA3LTAuMDcsMC4yLTAuMTksMC4yNC0wLjIyYzAuMDEtMC4xMywwLTAuMjUsMC4xMy0wLjM5ICAgYzAuMjctMC4yNSwwLjYxLTAuNDYsMS4wMi0wLjcyYzAuMTktMC4xMSwwLjM3LTAuMTgsMC41Ny0wLjMzYzAuMDQtMC4wMywwLjEtMC4wOCwwLjE1LTAuMTJjMC4zMy0wLjI2LDAuNC0wLjcxLDAuMTctMS4wMSAgIGMtMC4yNC0wLjI5LTAuNy0wLjMyLTEuMDMtMC4wNmMtMC4wNCwwLjA0LTAuMTEsMC4wOS0wLjE1LDAuMTJjLTAuMTgsMC4xNi0wLjMsMC4zMi0wLjQ1LDAuNDhjLTAuMzQsMC4zNC0wLjYyLDAuNjMtMC45MiwwLjg0ICAgYy0wLjE0LDAuMDctMC4zMywwLjA1LTAuNDIsMC4wNGwtMC4yNiwwLjE5Yy0xLjQ4LTEuNTYtMy41MS0yLjU1LTUuNjktMi43NWMwLTAuMDktMC4wMS0wLjI1LTAuMDEtMC4zICAgYy0wLjA5LTAuMDktMC4yLTAuMTYtMC4yMy0wLjM1Yy0wLjAzLTAuMzYsMC4wMy0wLjc2LDAuMDgtMS4yNGMwLjA0LTAuMjIsMC4wOS0wLjQxLDAuMS0wLjY1YzAtMC4wNiwwLTAuMTMsMC0wLjE5ICAgQzEyLjc1LDEwLjQ5LDEyLjQ0LDEwLjE1LDEyLjA2LDEwLjE1eiBNMTEuMiwxNS40NkwxMSwxOS4wNWgtMC4wMWwwLDBjLTAuMDIsMC4zMy0wLjI4LDAuNTgtMC42MSwwLjU4ICAgYy0wLjEzLDAtMC4yNS0wLjA0LTAuMzUtMC4xMWgtMC4wMWwtMi45NC0yLjA5bDAsMGMwLjktMC44OSwyLjA2LTEuNTUsMy4zOS0xLjg1QzEwLjcyLDE1LjUyLDEwLjk2LDE1LjQ4LDExLjIsMTUuNDZ6ICAgIE0xMi45MiwxNS40NmMxLjU2LDAuMTksMywwLjg5LDQuMSwxLjk3bC0yLjkyLDIuMDhsLTAuMDEtMC4wMWwwLDBjLTAuMjYsMC4xOS0wLjYzLDAuMTQtMC44My0wLjExYy0wLjA5LTAuMS0wLjEzLTAuMjItMC4xMy0wLjM1ICAgTDEyLjkyLDE1LjQ2eiBNNi4wMSwxOC43N2wyLjY5LDIuNDFMOC42OSwyMS4ybDAsMGMwLjI1LDAuMjEsMC4yOCwwLjU3LDAuMDgsMC44MmMtMC4wOCwwLjExLTAuMTksMC4xOC0wLjMxLDAuMjFsLTAuMDEsMC4wMSAgIGwtMy40NCwxbDAsMEM0LjgzLDIxLjYzLDUuMjEsMjAuMDgsNi4wMSwxOC43N3ogTTE4LjEsMTguNzhjMC40LDAuNjQsMC43LDEuMzcsMC44OCwyLjE1YzAuMTgsMC43NywwLjIyLDEuNTUsMC4xNSwyLjNsLTMuNDctMSAgIHYtMC4wMmwwLDBjLTAuMzEtMC4wOC0wLjUtMC40LTAuNDMtMC43MWMwLjAzLTAuMTMsMC4xLTAuMjQsMC4xOS0wLjMydi0wLjAxTDE4LjEsMTguNzh6IE0xMS41MSwyMS4zNmgxLjFsMC42OSwwLjg2bC0wLjI1LDEuMDcgICBsLTAuOTksMC40OGwtMC45OS0wLjQ4bC0wLjI1LTEuMDdMMTEuNTEsMjEuMzZ6IE0xNS4wNCwyNC4yOWMwLjA1LDAsMC4xLDAuMDEsMC4xNCwwLjAxaDAuMDFsMy41NiwwLjZsMCwwICAgYy0wLjUyLDEuNDYtMS41MiwyLjc0LTIuODUsMy41OGwtMS4zOS0zLjM0aDAuMDFsMCwwYy0wLjEzLTAuMywwLTAuNjQsMC4yOS0wLjc5QzE0Ljg5LDI0LjMyLDE0Ljk2LDI0LjMsMTUuMDQsMjQuMjl6IE05LjA1LDI0LjMxICAgYzAuMjcsMCwwLjUyLDAuMTksMC41OCwwLjQ3YzAuMDMsMC4xMywwLjAyLDAuMjYtMC4wMywwLjM3bDAuMDEsMC4wMWwtMS4zNywzLjMxbDAsMGMtMS4yOC0wLjgyLTIuMy0yLjA1LTIuODUtMy41NmwzLjU0LTAuNnYwLjAxICAgbDAsMEM4Ljk3LDI0LjMxLDkuMDEsMjQuMzEsOS4wNSwyNC4zMXogTTEyLjA0LDI1Ljc2YzAuMDktMC4wMSwwLjE5LDAuMDIsMC4yOCwwLjA2YzAuMTIsMC4wNiwwLjIxLDAuMTUsMC4yNywwLjI2aDAuMDFsMS43NSwzLjE1ICAgbDAsMGMtMC4yMywwLjA3LTAuNDYsMC4xNC0wLjcsMC4xOWMtMS4zMywwLjMtMi42NiwwLjIxLTMuODYtMC4ybDEuNzQtMy4xNGwwLDBsMCwwQzExLjYzLDI1Ljg4LDExLjgzLDI1Ljc3LDEyLjA0LDI1Ljc2eiIvPiYjeGE7PC9nPiYjeGE7PC9zdmc+;" vertex="1" parent="1">
          <mxGeometry x="1145" y="647" width="35" height="34" as="geometry" />
        </mxCell>
        <mxCell id="_JJxdnKlNdLemzVeChPx-2087" value="" style="shape=image;verticalLabelPosition=bottom;labelBackgroundColor=#ffffff;verticalAlign=top;aspect=fixed;imageAspect=0;image=data:image/svg+xml,PHN2ZyB4bWxuczpjYz0iaHR0cDovL2NyZWF0aXZlY29tbW9ucy5vcmcvbnMjIiB4bWxuczpkYz0iaHR0cDovL3B1cmwub3JnL2RjL2VsZW1lbnRzLzEuMS8iIHhtbG5zOmlua3NjYXBlPSJodHRwOi8vd3d3Lmlua3NjYXBlLm9yZy9uYW1lc3BhY2VzL2lua3NjYXBlIiB4bWxuczpyZGY9Imh0dHA6Ly93d3cudzMub3JnLzE5OTkvMDIvMjItcmRmLXN5bnRheC1ucyMiIHhtbG5zOnNvZGlwb2RpPSJodHRwOi8vc29kaXBvZGkuc291cmNlZm9yZ2UubmV0L0RURC9zb2RpcG9kaS0wLmR0ZCIgeG1sbnM6c3ZnPSJodHRwOi8vd3d3LnczLm9yZy8yMDAwL3N2ZyIgeG1sbnM9Imh0dHA6Ly93d3cudzMub3JnLzIwMDAvc3ZnIiB4bWxuczp4bGluaz0iaHR0cDovL3d3dy53My5vcmcvMTk5OS94bGluayIgdmVyc2lvbj0iMS4xIiBpZD0ic3ZnNjQyMyIgaW5rc2NhcGU6dmVyc2lvbj0iMC45Mi4zICgyNDA1NTQ2LCAyMDE4LTAzLTExKSIgc29kaXBvZGk6ZG9jbmFtZT0ia3ViZXJuZXRlcy5zdmciIHg9IjBweCIgeT0iMHB4IiB2aWV3Qm94PSIwIDAgMzQuNyAzMy43MSIgc3R5bGU9ImVuYWJsZS1iYWNrZ3JvdW5kOm5ldyAwIDAgMzQuNyAzMy43MTsiIHhtbDpzcGFjZT0icHJlc2VydmUiPiYjeGE7PHNvZGlwb2RpOm5hbWVkdmlldyBib3JkZXJjb2xvcj0iIzY2NjY2NiIgYm9yZGVyb3BhY2l0eT0iMSIgZml0LW1hcmdpbi1ib3R0b209IjAiIGZpdC1tYXJnaW4tbGVmdD0iMCIgZml0LW1hcmdpbi1yaWdodD0iMCIgZml0LW1hcmdpbi10b3A9IjAiIGdyaWR0b2xlcmFuY2U9IjEwIiBndWlkZXRvbGVyYW5jZT0iMTAiIGlkPSJuYW1lZHZpZXc2NDI1IiBpbmtzY2FwZTpjdXJyZW50LWxheWVyPSJzdmc2NDIzIiBpbmtzY2FwZTpjeD0iMjMuMTM1NjMyIiBpbmtzY2FwZTpjeT0iMjIuNDcxOTk0IiBpbmtzY2FwZTpwYWdlb3BhY2l0eT0iMCIgaW5rc2NhcGU6cGFnZXNoYWRvdz0iMiIgaW5rc2NhcGU6d2luZG93LWhlaWdodD0iMTAxNyIgaW5rc2NhcGU6d2luZG93LW1heGltaXplZD0iMSIgaW5rc2NhcGU6d2luZG93LXdpZHRoPSIxOTIwIiBpbmtzY2FwZTp3aW5kb3cteD0iLTgiIGlua3NjYXBlOndpbmRvdy15PSItOCIgaW5rc2NhcGU6em9vbT0iMTkuMjg4MzkzIiBvYmplY3R0b2xlcmFuY2U9IjEwIiBwYWdlY29sb3I9IiNmZmZmZmYiIHNob3dncmlkPSJmYWxzZSI+JiN4YTsJPC9zb2RpcG9kaTpuYW1lZHZpZXc+JiN4YTs8ZyBpZD0ic2hhcGUzNTA0LTIiIHRyYW5zZm9ybT0idHJhbnNsYXRlKDIuMjkwNDQ1NywtMi4yODk1MTk5KSI+JiN4YTsJPHRpdGxlIGlkPSJ0aXRsZTY0MDAiPlNoZWV0LjM1MDQ8L3RpdGxlPiYjeGE7CSYjeGE7CQk8cGF0aCBpZD0icGF0aDY0MDIiIGlua3NjYXBlOmNvbm5lY3Rvci1jdXJ2YXR1cmU9IjAiIHN0eWxlPSJmaWxsOiNGRkZGRkY7c3Ryb2tlOiNGRkZGRkY7c3Ryb2tlLXdpZHRoOjQuNTgxO3N0cm9rZS1saW5lY2FwOnJvdW5kO3N0cm9rZS1saW5lam9pbjpyb3VuZDtzdHJva2UtbWl0ZXJsaW1pdDozOyIgZD0iICAgTTE1LjA2LDQuNThsMTIuMDgsNS43N2wyLjk4LDEyLjk2bC04LjM1LDEwLjRIOC4zNkwwLDIzLjMybDIuOTgtMTIuOTdMMTUuMDYsNC41OHoiLz4mI3hhOzwvZz4mI3hhOzxnIGlkPSJzaGFwZTM1MDUtNCIgdHJhbnNmb3JtPSJ0cmFuc2xhdGUoMC44OTgyMTU3MSwtMC44ODg1OTk4NSkiPiYjeGE7CTx0aXRsZSBpZD0idGl0bGU2NDA1Ij5TaGVldC4zNTA1PC90aXRsZT4mI3hhOwk8cGF0aCBpZD0icGF0aDY0MDciIGlua3NjYXBlOmNvbm5lY3Rvci1jdXJ2YXR1cmU9IjAiIHN0eWxlPSJmaWxsOiMzMjZDRTU7IiBkPSJNMTYuMzQsMS43OEMxNi4wNSwxLjgsMTUuNzYsMS44NywxNS41LDJMNC4wNiw3LjQ2ICAgYy0wLjYsMC4yOS0xLjAzLDAuODMtMS4xOCwxLjQ3TDAuMDYsMjEuMjFjLTAuMTQsMC41OC0wLjAzLDEuMTcsMC4yOSwxLjY3YzAuMDQsMC4wNiwwLjA4LDAuMTEsMC4xMywwLjE3TDguNCwzMi45ICAgYzAuNDEsMC41MSwxLjA0LDAuODEsMS43LDAuODFoMTIuN2MwLjY3LDAsMS4zLTAuMywxLjcxLTAuODJsNy45Mi05Ljg0YzAuNDEtMC41MiwwLjU3LTEuMiwwLjQyLTEuODRMMzAuMDMsOC45MyAgIGMtMC4xNS0wLjY0LTAuNTktMS4xOC0xLjE5LTEuNDdMMTcuNCwyQzE3LjA3LDEuODQsMTYuNywxLjc2LDE2LjM0LDEuNzh6Ii8+JiN4YTs8L2c+JiN4YTs8ZyBpZD0ic2hhcGUzNTA2LTYiIHRyYW5zZm9ybT0idHJhbnNsYXRlKDAuODk4MjE1NzEsLTAuODg4NTk5ODUpIj4mI3hhOwk8dGl0bGUgaWQ9InRpdGxlNjQxMCI+U2hlZXQuMzUwNjwvdGl0bGU+JiN4YTsJPHBhdGggaWQ9InBhdGg2NDEyIiBpbmtzY2FwZTpjb25uZWN0b3ItY3VydmF0dXJlPSIwIiBzdHlsZT0iZmlsbDpub25lOyIgZD0iTTE2LjM0LDEuNzhDMTYuMDUsMS44LDE1Ljc2LDEuODcsMTUuNSwyTDQuMDYsNy40NiAgIGMtMC42LDAuMjktMS4wMywwLjgzLTEuMTgsMS40N0wwLjA2LDIxLjIxYy0wLjE0LDAuNTgtMC4wMywxLjE3LDAuMjksMS42N2MwLjA0LDAuMDYsMC4wOCwwLjExLDAuMTMsMC4xN0w4LjQsMzIuOSAgIGMwLjQxLDAuNTEsMS4wNCwwLjgxLDEuNywwLjgxaDEyLjdjMC42NywwLDEuMy0wLjMsMS43MS0wLjgybDcuOTItOS44NGMwLjQxLTAuNTIsMC41Ny0xLjIsMC40Mi0xLjg0TDMwLjAzLDguOTMgICBjLTAuMTUtMC42NC0wLjU5LTEuMTgtMS4xOS0xLjQ3TDE3LjQsMkMxNy4wNywxLjg0LDE2LjcsMS43NiwxNi4zNCwxLjc4Ii8+JiN4YTs8L2c+JiN4YTs8ZyBpZD0ic2hhcGUzNTA3LTkiIHRyYW5zZm9ybT0idHJhbnNsYXRlKDUuMjkwMzg1NywtNS4wNzA3OTk5KSI+JiN4YTsJPHRpdGxlIGlkPSJ0aXRsZTY0MTUiPlNoZWV0LjM1MDc8L3RpdGxlPiYjeGE7CSYjeGE7CQk8cGF0aCBpZD0icGF0aDY0MTciIGlua3NjYXBlOmNvbm5lY3Rvci1jdXJ2YXR1cmU9IjAiIHN0eWxlPSJmaWxsOiNGRkZGRkY7c3Ryb2tlOiNGRkZGRkY7c3Ryb2tlLXdpZHRoOjAuMDExMjtzdHJva2UtbGluZWNhcDpyb3VuZDtzdHJva2UtbGluZWpvaW46cm91bmQ7c3Ryb2tlLW1pdGVybGltaXQ6MzsiIGQ9IiAgIE0xMi4wNiwxMC4xNWMtMC4zOCwwLTAuNjgsMC4zNC0wLjY4LDAuNzZ2MC4wMWMwLDAuMDYsMCwwLjEzLDAsMC4xOGMwLjAxLDAuMjQsMC4wNiwwLjQzLDAuMDksMC42NWMwLjA2LDAuNDgsMC4xLDAuODgsMC4wNywxLjI0ICAgYy0wLjAyLDAuMTQtMC4xMywwLjI3LTAuMjIsMC4zNmwtMC4wMSwwLjI5Yy0wLjQxLDAuMDMtMC44MywwLjA5LTEuMjQsMC4xOWMtMS43OCwwLjQtMy4zMSwxLjMyLTQuNDcsMi41NSAgIGMtMC4wOC0wLjA1LTAuMjEtMC4xNC0wLjI1LTAuMTdjLTAuMTIsMC4wMS0wLjI1LDAuMDUtMC40MS0wLjA0Yy0wLjMxLTAuMjEtMC41OC0wLjQ5LTAuOTItMC44NGMtMC4xNi0wLjE2LTAuMjctMC4zMi0wLjQ1LTAuNDggICBjLTAuMDUtMC4wMy0wLjExLTAuMDgtMC4xNS0wLjEyYy0wLjE1LTAuMTEtMC4zMi0wLjE3LTAuNDgtMC4xOGMtMC4yMSwwLTAuNDIsMC4wOC0wLjU1LDAuMjRjLTAuMjMsMC4zLTAuMTYsMC43NSwwLjE3LDEuMDJoMC4wMSAgIGMwLjA0LDAuMDQsMC4xLDAuMDksMC4xNCwwLjEyYzAuMiwwLjE0LDAuMzgsMC4yMSwwLjU3LDAuMzNjMC40MSwwLjI1LDAuNzUsMC40NiwxLjAyLDAuNzFjMC4xMSwwLjEyLDAuMTIsMC4zMSwwLjE0LDAuNGwwLjIyLDAuMiAgIGMtMS4xOCwxLjc2LTEuNzIsMy45NS0xLjQsNi4xN2wtMC4yOSwwLjA5Yy0wLjA3LDAuMDktMC4xOCwwLjI1LTAuMjksMC4yOWMtMC4zNSwwLjExLTAuNzUsMC4xNS0xLjIzLDAuMiAgIGMtMC4yMiwwLjAyLTAuNDIsMC4wMS0wLjY2LDAuMDZjLTAuMDUsMC4wMS0wLjEyLDAuMDMtMC4xOCwwLjA0YzAsMCwwLDAtMC4wMSwwbDAsMGMtMC40MSwwLjEtMC42NywwLjQ3LTAuNTgsMC44NCAgIGMwLjA4LDAuMzYsMC40NywwLjU5LDAuODgsMC41aDAuMDFsMC4wMS0wLjAxYzAuMDYtMC4wMSwwLjEzLTAuMDIsMC4xOC0wLjA0YzAuMjMtMC4wNiwwLjQtMC4xNSwwLjYxLTAuMjMgICBjMC40Ni0wLjE2LDAuODMtMC4zLDEuMi0wLjM1YzAuMTUtMC4wMiwwLjMxLDAuMDksMC4zOSwwLjE0bDAuMy0wLjA2YzAuNjksMi4xNCwyLjEzLDMuODYsMy45NSw0LjkzbC0wLjEzLDAuMyAgIGMwLjA1LDAuMTIsMC4xLDAuMjgsMC4wNiwwLjM5Yy0wLjEzLDAuMzQtMC4zNiwwLjcxLTAuNjEsMS4xMmMtMC4xMywwLjE4LTAuMjYsMC4zMy0wLjM3LDAuNTRjLTAuMDMsMC4wNi0wLjA2LDAuMTMtMC4wOSwwLjE5ICAgYy0wLjE4LDAuMzctMC4wNSwwLjgxLDAuMjksMC45N2MwLjM0LDAuMTcsMC43Ny0wLjAxLDAuOTUtMC4zOWwwLDBsMCwwYzAuMDMtMC4wNSwwLjA2LTAuMTIsMC4wOC0wLjE3ICAgYzAuMS0wLjIzLDAuMTMtMC40MiwwLjItMC42M2MwLjE4LTAuNDYsMC4yOC0wLjkzLDAuNTMtMS4yM2MwLjA3LTAuMDgsMC4xOC0wLjEyLDAuMjktMC4xNWwwLjE2LTAuMjggICBjMS41OSwwLjYxLDMuMzcsMC43OCw1LjE0LDAuMzdjMC40MS0wLjA5LDAuOC0wLjIxLDEuMTgtMC4zNWMwLjA1LDAuMDgsMC4xMiwwLjIzLDAuMTUsMC4yNmMwLjExLDAuMDQsMC4yNCwwLjA2LDAuMzQsMC4yMSAgIGMwLjE5LDAuMzMsMC4zMiwwLjcsMC40OCwxLjE2YzAuMDYsMC4yMSwwLjEsMC40LDAuMiwwLjYyYzAuMDIsMC4wNiwwLjA1LDAuMTMsMC4wOCwwLjE4YzAuMTgsMC4zOCwwLjYsMC41NSwwLjk1LDAuMzkgICBjMC4zNC0wLjE3LDAuNDYtMC42LDAuMjktMC45N2MtMC4wMy0wLjA2LTAuMDctMC4xNC0wLjA5LTAuMTljLTAuMTItMC4yMS0wLjI0LTAuMzYtMC4zNy0wLjU1Yy0wLjI2LTAuNC0wLjQ3LTAuNzQtMC42MS0xLjA4ICAgYy0wLjA1LTAuMTgsMC4wMS0wLjI5LDAuMDYtMC40MWMtMC4wMy0wLjAzLTAuMDktMC4xOS0wLjEyLTAuMjdjMS45LTEuMTIsMy4yOS0yLjkxLDMuOTUtNC45N2MwLjA5LDAuMDEsMC4yNCwwLjA0LDAuMjksMC4wNSAgIGMwLjEtMC4wNywwLjItMC4xNiwwLjM5LTAuMTRjMC4zNiwwLjA1LDAuNzQsMC4xOSwxLjE5LDAuMzVjMC4yMSwwLjA4LDAuMzgsMC4xOCwwLjYxLDAuMjRjMC4wNSwwLjAxLDAuMTIsMC4wMiwwLjE4LDAuMDQgICBjMCwwLDAuMDEsMCwwLjAyLDBsMCwwYzAuNDEsMC4wOSwwLjgtMC4xMywwLjg5LTAuNWMwLjA4LTAuMzYtMC4xOC0wLjczLTAuNTgtMC44M2MtMC4wNi0wLjAyLTAuMTQtMC4wNC0wLjItMC4wNSAgIGMtMC4yNC0wLjA0LTAuNDMtMC4wMy0wLjY2LTAuMDVjLTAuNDgtMC4wNS0wLjg3LTAuMDktMS4yMy0wLjJjLTAuMTQtMC4wNi0wLjI0LTAuMjMtMC4yOS0wLjNsLTAuMjgtMC4wOCAgIGMwLjE1LTEuMDQsMC4xMS0yLjEyLTAuMTQtMy4yYy0wLjI1LTEuMDktMC42OS0yLjA4LTEuMjgtMi45NmMwLjA3LTAuMDcsMC4yLTAuMTksMC4yNC0wLjIyYzAuMDEtMC4xMywwLTAuMjUsMC4xMy0wLjM5ICAgYzAuMjctMC4yNSwwLjYxLTAuNDYsMS4wMi0wLjcyYzAuMTktMC4xMSwwLjM3LTAuMTgsMC41Ny0wLjMzYzAuMDQtMC4wMywwLjEtMC4wOCwwLjE1LTAuMTJjMC4zMy0wLjI2LDAuNC0wLjcxLDAuMTctMS4wMSAgIGMtMC4yNC0wLjI5LTAuNy0wLjMyLTEuMDMtMC4wNmMtMC4wNCwwLjA0LTAuMTEsMC4wOS0wLjE1LDAuMTJjLTAuMTgsMC4xNi0wLjMsMC4zMi0wLjQ1LDAuNDhjLTAuMzQsMC4zNC0wLjYyLDAuNjMtMC45MiwwLjg0ICAgYy0wLjE0LDAuMDctMC4zMywwLjA1LTAuNDIsMC4wNGwtMC4yNiwwLjE5Yy0xLjQ4LTEuNTYtMy41MS0yLjU1LTUuNjktMi43NWMwLTAuMDktMC4wMS0wLjI1LTAuMDEtMC4zICAgYy0wLjA5LTAuMDktMC4yLTAuMTYtMC4yMy0wLjM1Yy0wLjAzLTAuMzYsMC4wMy0wLjc2LDAuMDgtMS4yNGMwLjA0LTAuMjIsMC4wOS0wLjQxLDAuMS0wLjY1YzAtMC4wNiwwLTAuMTMsMC0wLjE5ICAgQzEyLjc1LDEwLjQ5LDEyLjQ0LDEwLjE1LDEyLjA2LDEwLjE1eiBNMTEuMiwxNS40NkwxMSwxOS4wNWgtMC4wMWwwLDBjLTAuMDIsMC4zMy0wLjI4LDAuNTgtMC42MSwwLjU4ICAgYy0wLjEzLDAtMC4yNS0wLjA0LTAuMzUtMC4xMWgtMC4wMWwtMi45NC0yLjA5bDAsMGMwLjktMC44OSwyLjA2LTEuNTUsMy4zOS0xLjg1QzEwLjcyLDE1LjUyLDEwLjk2LDE1LjQ4LDExLjIsMTUuNDZ6ICAgIE0xMi45MiwxNS40NmMxLjU2LDAuMTksMywwLjg5LDQuMSwxLjk3bC0yLjkyLDIuMDhsLTAuMDEtMC4wMWwwLDBjLTAuMjYsMC4xOS0wLjYzLDAuMTQtMC44My0wLjExYy0wLjA5LTAuMS0wLjEzLTAuMjItMC4xMy0wLjM1ICAgTDEyLjkyLDE1LjQ2eiBNNi4wMSwxOC43N2wyLjY5LDIuNDFMOC42OSwyMS4ybDAsMGMwLjI1LDAuMjEsMC4yOCwwLjU3LDAuMDgsMC44MmMtMC4wOCwwLjExLTAuMTksMC4xOC0wLjMxLDAuMjFsLTAuMDEsMC4wMSAgIGwtMy40NCwxbDAsMEM0LjgzLDIxLjYzLDUuMjEsMjAuMDgsNi4wMSwxOC43N3ogTTE4LjEsMTguNzhjMC40LDAuNjQsMC43LDEuMzcsMC44OCwyLjE1YzAuMTgsMC43NywwLjIyLDEuNTUsMC4xNSwyLjNsLTMuNDctMSAgIHYtMC4wMmwwLDBjLTAuMzEtMC4wOC0wLjUtMC40LTAuNDMtMC43MWMwLjAzLTAuMTMsMC4xLTAuMjQsMC4xOS0wLjMydi0wLjAxTDE4LjEsMTguNzh6IE0xMS41MSwyMS4zNmgxLjFsMC42OSwwLjg2bC0wLjI1LDEuMDcgICBsLTAuOTksMC40OGwtMC45OS0wLjQ4bC0wLjI1LTEuMDdMMTEuNTEsMjEuMzZ6IE0xNS4wNCwyNC4yOWMwLjA1LDAsMC4xLDAuMDEsMC4xNCwwLjAxaDAuMDFsMy41NiwwLjZsMCwwICAgYy0wLjUyLDEuNDYtMS41MiwyLjc0LTIuODUsMy41OGwtMS4zOS0zLjM0aDAuMDFsMCwwYy0wLjEzLTAuMywwLTAuNjQsMC4yOS0wLjc5QzE0Ljg5LDI0LjMyLDE0Ljk2LDI0LjMsMTUuMDQsMjQuMjl6IE05LjA1LDI0LjMxICAgYzAuMjcsMCwwLjUyLDAuMTksMC41OCwwLjQ3YzAuMDMsMC4xMywwLjAyLDAuMjYtMC4wMywwLjM3bDAuMDEsMC4wMWwtMS4zNywzLjMxbDAsMGMtMS4yOC0wLjgyLTIuMy0yLjA1LTIuODUtMy41NmwzLjU0LTAuNnYwLjAxICAgbDAsMEM4Ljk3LDI0LjMxLDkuMDEsMjQuMzEsOS4wNSwyNC4zMXogTTEyLjA0LDI1Ljc2YzAuMDktMC4wMSwwLjE5LDAuMDIsMC4yOCwwLjA2YzAuMTIsMC4wNiwwLjIxLDAuMTUsMC4yNywwLjI2aDAuMDFsMS43NSwzLjE1ICAgbDAsMGMtMC4yMywwLjA3LTAuNDYsMC4xNC0wLjcsMC4xOWMtMS4zMywwLjMtMi42NiwwLjIxLTMuODYtMC4ybDEuNzQtMy4xNGwwLDBsMCwwQzExLjYzLDI1Ljg4LDExLjgzLDI1Ljc3LDEyLjA0LDI1Ljc2eiIvPiYjeGE7PC9nPiYjeGE7PC9zdmc+;fillColor=#FF9999;fontColor=#7EA6E0;" vertex="1" parent="1">
          <mxGeometry x="230" y="195.04000000000002" width="72.65" height="70.57" as="geometry" />
        </mxCell>
        <mxCell id="_JJxdnKlNdLemzVeChPx-2088" value="" style="points=[[0,0,0],[0.25,0,0],[0.5,0,0],[0.75,0,0],[1,0,0],[0,1,0],[0.25,1,0],[0.5,1,0],[0.75,1,0],[1,1,0],[0,0.25,0],[0,0.5,0],[0,0.75,0],[1,0.25,0],[1,0.5,0],[1,0.75,0]];outlineConnect=0;fontColor=#232F3E;gradientColor=#945DF2;gradientDirection=north;fillColor=#5A30B5;strokeColor=#ffffff;dashed=0;verticalLabelPosition=bottom;verticalAlign=top;align=center;html=1;fontSize=12;fontStyle=0;aspect=fixed;shape=mxgraph.aws4.resourceIcon;resIcon=mxgraph.aws4.managed_streaming_for_kafka;" vertex="1" parent="1">
          <mxGeometry x="61.5" y="681" width="78" height="78" as="geometry" />
        </mxCell>
        <mxCell id="_JJxdnKlNdLemzVeChPx-2089" value="" style="shape=image;verticalLabelPosition=bottom;verticalAlign=top;imageAspect=0;image=https://airflow.apache.org/docs/apache-airflow/stable/_images/pin_large.png;fillColor=#FF9999;fontColor=#7EA6E0;" vertex="1" parent="1">
          <mxGeometry x="291" y="413" width="78" height="78" as="geometry" />
        </mxCell>
        <mxCell id="_JJxdnKlNdLemzVeChPx-2091" value="" style="shape=image;verticalLabelPosition=bottom;verticalAlign=top;imageAspect=0;image=data:image/png,iVBORw0KGgoAAAANSUhEUgAAAfQAAAD6CAYAAABXq7VOAAAABGdBTUEAALGPC/xhBQAAO/pJREFUeAHtnQmAHFWd/+tVzxFmJncIV+bOBTEkCHIEE4KisCCgcogcSQggCC6uroggC+FYcF3EVYEFISHhEogHgqggiyGAHH8SDglJIDOZizvkTsjMdFf9v7/O9FBTqep+1V19zXwf/NL1rt979Xk19at31CvDoCMBEiABEiABEiABEiABEiABEiABEiABEiABEiABEiABEiABEiABEiABEiABEiABEiABEiABEiABEiABEiABEiABEiABEiABEiABEiABEiABEiABEiABEiABEiABEiABEiABEiABEiABEiABEiABEiABEiABEiABEiABEiABEiABEiABEiABEiABEiABEiABEiABEiABEiABEiABEiABEiABEiABEiABEiABEiABEiABEiABEiABEiABEiABEiABEiABEiABEiABEiABEiABEiABEiABEiABEiABEiABEiABEiABEiABEiABEiABEiABEiABEiABEiABEiABEiABEiABEiABEiABEiABEiABEiABEiABEiABEiABEiABEiABEiABEiABEiABEiABEiABEiABEiABEiABEiABEiABEiABEiABEiABEiABEiABEiABEiABEiABEiABEiABEiABEiABEiABEiABEiABEiABEiABEiABEiABEiABEiABEiABEiABEiABEiABEiABEiABEiABEiABEiABEiABEiABEiABEiABEiABEiABEiABEiABEiABEiABEiABEiABEiABEiABEiABEiABEiABEiABEiABEiABEiABEiABEiABEiABEiABEiABEihuAqq4q99/aj/5R88MjxjRofk6o8igwVuXzTtoXb7KZ7kkQAIkQAKZEaBBz4xfxrknzrmrrrO78/LywaMml1ZUHZqxwjQVVFXu9uLeew5921TqusUXTlmdphpmIwESIAESyBMBGvQ8gU8YckOpObZtl5ZXjVhVVjlkYp6qYwwZUrFij1GDJyllxAxD/YaGPV8twXJJgARIID0CNOjpcUs7l9uQJxSVVw1/p6xy6D4Jf65/YdBbYdBrE+XSsCdI8JcESIAEioMADXqO2snPkCeKL6satrm8ctiQhD/Xv0OHVn40emTV7u5ylaEsWxm/iSh1LYfi3XToJwESIIHCIUCDnuW2iBvyaNePUcxsGVr3Kw69cwu9dNMvPtvhw4ZVfrL7iKrd/MqhYfcjw3ASIAESKAwCNOhZagddQ54ovqxiiFE+eETCm/Pf4cOr7FHDK1NeDzTsOW8aFkgCJEACWgRS3sC1tDBRL4GghjyRMe8GfVilMWpEVaI6KX9p2FMiYgISIAESyCkBGvSQcKdryBPFF5tBT9Sbhj1Bgr8kQAIkkF8CNOgZ8s/UkCeKL1aDnqg/DXuCBH9JgARIID8EaNDT5B6WIU8UX+wGPXEeNOwJEvwlARIggdwSoEEPyHvCWXfUd9nW5ciWdNV6QLVGfzHoifOmYU+Q4C8JkAAJ5IYADbom54Zv3T7U3m7ciOShGvJE8f3NoCfOSwy7YdgPVETM793z7SkfJsL5SwIkQAIkEC6BvL33HO5pZF+b6jTH4j3yc5O9S579WhRfCbZhm7ZhnL5DmVOKr/asMQmQAAkUDwEa9OJpK9aUBEiABEiABHwJ0KD7omEECZAACZAACRQPARr04mkr1pQESIAESIAEfAnQoPuiYQQJkAAJkAAJFA8BGvTiaSvWlARIgARIgAR8CdCg+6JhBAmQAAmQAAkUDwEa9OJpK9aUBEiABEiABHwJ0KD7omEECZAACZAACRQPARr04mkr1pQESIAESIAEfAnQoPuiYQQJkAAJkAAJFA+BkuKpavKaNp69oDrWFb186iEH1puRyEtKmUsrquzn75k1ZVvynIwtNgIz59w1qCXWfYiy7RmGbcyYeujB76LNr/7dhfs3F9u5sL4kQAIkEBaBojfocUPe3X2Z1dV9Dj4CUqaU2mrY9tG2HTO2bTaiJ93y6jJDqaVK2UvLbPO5+y/cf0NY8KgnNwQmzJ0/uLM7Ni1uwA1jRmt318HS1tgjPu4UPjFkW7HTv37zq/co07yOhj037cJSSIAECotA0Rr0sWfcMSaqrMsThjxxc3fhLcHHVA6BgT8E8ZfsUJb99Ztfed0w1NIIjLxhlDy7+KJJ77vy0JtnAhNnLRrZbe2YHoPxVuiBd3ZGp8JkR3zaOFFbXMv22TDsZ+Eh7m5Dmf9Jw55Aw18SIIGBQKDoDLoY8piKXRazrXNhqHt7aVqNZdvyuVh89cueErPtfzWMLgM3/9Vi4A304M1I6dLF509q09LFRKERGD9r0T4xu3M62iQ+hL4jtmM/tFH8074pjLhXHeQhbq5hx2bRsHvhYRgJkEB/JVA0Br3XkBuxc2zbKMcNP5Q2wc1/AnRNgLrzYhYM/M2vtMkQPcKWmpiHX3zhFBh8ujAJjJ+7oCHWHZ0RN+DohXfFPmkMU3+PLhr2LEClShIggcIlEO8FFW71DEN6b92xHZehB41vkYshT+4OOPTgrZhHr0qeKkCsUh+Kcd+w7uO1a99ac0mAnIGSllUMMcoHjwiUJ8zEw4dVGqNGhIfNXbf3O979xbsd7aPR8T4CPPd2x2fi/+xhh+hkj+K64FC8DimmIQESKEoCBd9D77J2vAEDMCykDnnwRrLt0ch0cvmgQcHzMkcvga1bNn93ZxuGM7LSq1j/oLfHfspDKyoXnzqpSz8rU5IACZBA4RMohvfQywofI2tYRARK9qwqK/iRqSLiyaqSAAkUCIFiMOgFgorVIAESIAESIIHCJUCDXrhtw5qRAAmQAAmQgDYBGnRtVExIAiRAAiRAAoVLoOAXxRUuOtaMBHJHYP/996/cvmnThJhljcJueIONmDHIVtYW245sUqXq/ebm5rewij9vKw5zRyJ/JeEVV7VvfX1t1DDq0A6DlaUG26YdNS1zs4rYm6qUWvlqS8vG/NWQJQ90AjToA/0K4PkXJIGGhoahdjR6tGEZx6OC0zev31CD352b7cSsnXWOm++YYXcbRkN1zbq66upnTMP8U01E3b+kpWVHJic2ceLEkd3bt0/01IEHh2qllnuVIQ8eWzZuPN227GOUoQ5EfryLaUtdmrFVUJPs8VA5ePBdK1as0HrL4JRTTokse/HFw3CqJxgWNh5SRiXelii3ldqCx5dnVUQt3SO295+f73j+E8+6Zhg4trb2s9GYfbwy7H+pr66ZDHUVCZW2vLaBpojhP/kfltyqH1P9T5z3Ers0smDt2rXYlTIzh/IPQBGhvubprpGySlqb2pvwNlH6bnJNzfBttv0N1PVgnH810FSjrfYEofVg147fDryyulqVRh4El1D29hg7dqy8xjzEq9ZV0Wi338OV/G0Z3bEzLMM6Cn9S2GgM1yg2KcO1+T7q2oE/sj+qsrJ7m5qa8MpycbmCX+1bd+bt2wC7948oFd7Q30PvKXD7tm3GqtczuuaTVr2/v4e+ZuUqY/PGTUkZpBup+R56r/p9GqoG/erYcZ29AQV0gJvUGGtH1w8swz4P1dK+7p2ngD/qj5SpbjXLym5as2bNZmecznF9ff0UOxp7AX93vu9qooy22pLIhIRRnzdvnnn3/PnnW4a6HvmGJSsHeTuw//71TW1ttyUbVWgcU3dMTFm3Ql99Mn0wHO/gQebKWeecvRD16HnaSZojaaScy6IFC07GA8TlMERyw0/L4dyeNE11Q1Nr61PpKGiorp1r2db8dPIGzWNGzJOaW1t/HzRfY23tkZZlfxv5TsAIRsp9QkQ/2v4lZZiLzPLS+bg+0/o7bKitPc6OWQ+gfXw3zwD/RWvb2+ZImeJkhAVMv4Oj65Plk7S4RqPYPvqXFUOqLtN9+JR8+XacQ893C7B8EgABudnUj6m9JNbZ1QRj/l0EpWXMBSZuVrvjJntVbEfX67jhfkHCArlo9DhUyNeYiy6UUdNmWQfFj1H3hfMXzLdsQ4xvUmPek3eMpK2vqbtF/G43s65uEEYb7kPP9y/Ql9yYS2bb2EcM38I7Fzwzta4uZfnu8pz+8XV1E6FnGUYYHsQ5pm3M49Wy7aNiMev/MHpym4xcOMvROUYP8vM66UJJE8PoRwA3adKkqvoxNbfj/J7CtXuKrjGXIrBB2MFor1uinV3LZAQkQLG9SdE+s1MZZdTprEQGGemBMb8boyq/TJVP8iAN9q2wvr9t05YX8YBbm9BT6L806IXeQqxfvycgw5UNNbV/tQ3rp7gJhbbvAm5etbjhPtlQUzMvGEQzopMedcUH8OK9nttwl56jk6dPGtv6NozCL5xhM2fOLGmNWQ/ijnq6M1zv2J62MWo9NX78+FF66fumqq+pObMrGnsZt/OpfWMy81m2ff7mDRtfm1hXVxdME/qyOXIwYNplNVRXH7Rt85bXcH19K6Pq2fakmGW/UF9de0VgPbYRyHa9/PyLN6G+ZwYuR66F7ugj6TyQBS8r8xyBoGReHDWQAAk4CUhvdKttPALD+GVneIjHSnrrMFZBbr64v+s5jAD8KJMbO/JejJEJfPp4p2ttaroNLE5I+IP/2gd0f/LJ74LmA59T0OtbhHyBe9JaZdl2446Y9WdMqXjO+WrpKIBEY2tqJmFa5Qk8wDWEUR20dSl6wtc2jKn5SRj6vHTEh+dxnXnF6YThj2H/zRs23KmTNt9paNDz3QIsf0ATaInG7sNN7fPZhgBjddOE6mrdxVV6vTWl9sLDQvDeletk0c+/EYZud3RgD8FwbK9xdyXT9kLHDAzZn6ibobGm5nCMCNyD9Nm9H9r2vhhmvlq3XoWWDovJaqK2/TiM+fCw64ZppkvR8/9e2HoPPPDAUsy1/zxjvbZxmkzHZKwnywqyewFnufJUTwLFTAA9h6+j/iK5cJVdhnGZZkF6PXT5TG0Gc/29dcG8e6yz81Ijat3QG5bpga20RiRkbjVmG7/GQ5XWgq5Mq4U5iu8EeLDKtLjQ8stUiN3V/aisVwhNqUsR1lX8DCMl8lZHaG7Dhx+fiYt5XBgKu6OWLP4raEeDXtDNw8r1VwI9PYdgw4xKNWOq8++Y7fwDutAvgk2gFd3ouX5TytVgqtVDh74vaejSS2IbWAhoH6mXWCeVfQSMdMrzePnFF89Bj3M/HY3xNMrA63HqFbya9SfIYyigQzsvEsK4lHTaSmsuF6/l4YXE3Dh8Kvr5ZCW1NDdfJEPPydKEEKdwRf/qsDGH7RaCrrgK247hugrHYSRJq93CKS09LTTo6XFjLhLIiMCGD9adqttzgNF4saQkcmRLe1tjS0fbF1ra27++tqP90Eh5WR1ezXk0QEVGbvhwQ5gLvkK7f4ihC3AeOkkrx1aPbUyZ0LJ/nDINEqAN8Pld42cl5eW1aIPPru1oOx7yleb2thp55Qvt8IGOHkkDXXrrJZT9WyTfpqs37XTKWF8dMR72y9/Y2DgaDxdX+8W7w/HK5J2RiHlsxCgbFzHV5w1TfRfnrPXggzUVtR+Y71zq1pmm38R1NSXNvLtms40RwRc27qommyFh/xFls67UTQL9hgCe9k+Q7loqByPydG0kckzifW9nemx80Y53pr+6aP6Ch9Eb1RqqtFRUXhP6f049YR7jxr0OpyU9rHAWlynVIvWD3r1xjmVyrO+ishHMGr/04+rqpnZHYzV+8Y5wrKlW56xta7vbERY/hCGXVvz9uNralVHLeAV1TD10r4z4635uXW7/2vb2J/B62J6dnZ3ar+JZlmViaPyRIIbMtM1/9bq+EvWxurquwmjM0IQ/ya8NY34qOMmDSMIJ/+fQ677jfdXxV1nfkIjw+8XQ+6V4iJgv17dfmrTDZYTFVs/j76oUjCZjdEabrZTZGYvJKEWLHBeiC+0JuxBPjnUigUIkIPORqNfRqeoGY4FtXUtPTHazlY1UcHPq8+pXMr3KVqOTxacVpxR2glPzBlVVjsLIwe7YzGNwWUlkX4T9OS192HdNesMYgdgDoxL1IhURsxZW/a4g+jAfkXS+FzvAfUVHH+pyi5cxd+Z9u7V1JR7QnnSG+R3D6A+dibcb/OKd4djUZCs2X+nQFSsa/VoQYw6mDzR3tN7vLNN5vLOe6gxnmN8xjPnNLmPem1R28sO1fALKW98b6HeAPRBind1z/aLTDUc7zq+0h4zBCMsXcY3OGDl6930wbfLLIPrwNzkpSPpcp6VBzzVxljfgCbS1tTXITT01CPse7NG+KVW6Aw85ZIn0jFOlk3gsyhqpky5Imohhno2b5NWrVq36OF4Geq1vtbSsWtveKgZzSRBdSGtj17dZ6J3+wLn15oqWlvcx1TAXN9QHA+iTkQJfh9elDvCNdESURiKeG+A4kuw8NI0/7hLmE9AeiezuE5V2MFahj0OP8wZtBUq9BwN3UbL0LbHYiTrXKq6/6CClkpYt1zJ2iFuYrLzeOGX0bgrTG5bBAQz3r3FNnbuiY0XvA8WyZcu2Y9rku3jI8J1ucBeJZRlp7XHg1pMtPw16tshSLwn4EBg+fPha3ETuT2WEI6a5wEdFn+DFixfHsPzr2T6BPh703kb4RKUVDAP7RFN7ywNemRFnm8q4xCvOLwx5FifrMRolkaRGw6kX87FJDXrEiNyBNngbZeIFAG+HXt1SeTjxju0bGsHQct8Qf5+KRkM1DLJdrdUVXYhRgqTn7KwRtqU9z2ngnHG9x7Yxu/c4yYGNd9NXtra+lyRJPMq01d9SpYnH4739+OuEWolTJFJq49AS03devsQ0r02hoTcamz8N7/UU4AENegE2CqvUvwmgZ9CN3uYZMjw9co/RlaURcz9DRY7BkOX5SpnX4/c+9GR+uKa19RVdEjBKeounlFGuq1MnHYxm0oeO5vb2l2E0tRZExctTxp3Jyl27du1rONfNydIk4pAu6Zx7U0fLX9EG42efM3e3cmXsUxIxp0VU5JsYx7gUhvxWeeiKKHVhQl/KX9vW3pccD1bahjdluUiwaP5d38fgxjSdtPE0yliAvdsfS5ZeVpuj7XTfZHg6ma5EHBbK/TNxnOoXUybfSJVGJx5t+Zjfh1okP/7OluM8defrA82569QvzDRcFBcmTeoigYAEZNgPWVb2SMDcfZJ/0seXmQf2Rs9h1XfKXilGD95Az3GMjkYM276RKh0qJ8OmQ1Klw1t9sAmpnaxDQKp3e+T51Dm8U8RKSqLYJtQ70h2q8UqdO4ufXzY86YpZ2r1MGK+2SHn59/z0JcI/irw71Y7pvX0QiSithZZvdbz1Tl11zQatzWls+5BEXTL8/Wvq/Op1PBBVp0xnq1AfiFOWFzABe+gBgTE5CRQiAdiHbs166Rhr3PNTO+kpy2KtVCmxEK8tVZp4PBZM6Qzb4uFgo44+1E/LoOvo0kljmmZOy5M6ycY43bHYIhhIrUV2yCIr0eei3VKOcsRihnz+VstZptmslRCJcHGlfGjbqUtN0dw3IVnRtlla+kSyBBKHXnzK6ziuA7NIqXTlM5499HzSZ9kkEICA7ANudXaOx7KxCYZpj4dllle5RmHBzygs8No3gKpwktr2+zqK0EPfDiOc0uE83kyZKJ7A1jLo6J+HbmBlrvqBhQtrdsSMCcq2xsM4NVrK3l3aAK937aVX//BS4VvxP8SrYAfrapSphOa2tv/TSq/sg3TaDbrs2tradzAdoqUW8+0w6Pb0VIlxbZdv/vhjWVX+aqq0vvFKrXQurvRPZ2zSOVe0M5ZKFK6jQS/ctmHNBjiB+vr6CUYsdgRu2Idhdfq06A4Y87iDnXKYKsxj54eUUlt0CoYR6cY56LgNOonQ84Y+PYU6+pKlmYnXy1otazoM9+Eochre+cd+83Z8uF9qEK8F/slHGzRWN37GsrvnJau/Mw7tsGbE6NE/xGpvZ3CSY70d9MBm25IlSzTnGrBhvrLb8a65lrNisalImL5Bt+0PdQraOcKlVSmcbuE6GvTCbRvWbAASqK+un4GVtF/FHpjH293RsQkEWreaROLMf/WKs229m7gtvRotlY7HlCQnEfDTmUk0eUbh9a+hRnfsJHTwj8fHc2RRWKVW7T21ZSdQ9jJoaWqWofakC/8cpVumUnN61mw4gpMeaq3otpXamlSLO9K2sW+BnsPrG6P1UvqkUobWQ6JP7qILpkEvuiZjhfsjAXyGdBq+XIbvoUcPl/MrNAPixRxDpzGvcHcYRhciOueDnq+WPujKyjymzNdu+Oijf7e6oz/UWrTlPtEc+lvWNF+Oq+SzukWid35TU1tbygWMffTZxrA+fh8P2ld3/UZCg7ZBx4S7Vh0Sij1+N3qEeQTpjhl4ZC2goKz8YRTQ+bEqJFDQBGROtqGm5upYzHoGBi1uzAugwlrDijASegZY2Vrzjpif1Oqhy+vtYTMaX1PTsP7DD5/DQ9UNhW7MZctasL9Cm4FSb2JVu376TxVrGlO9dvtUbUTfoBtKsw6fanceyXSA09/fj0P/w+jvwHh+JBAWATHmi+5csBBG5EroLKS/RZ0ONaqsPZGt9YCA3phmuWG1wE492Id93y7beA5n87lwNYevTUYRotHYIjz8lepoB/ioadizsapd+x150SvvoKMxNEdwU3/VzlXXAAbdysigY/l6Xq4p1/nmzKvZYDmrDwsigQFDYNH8+b/A3easgCeMu6d6Cx93WY7XwT5SprEB3dr1yrJPh66w3tvVM8ABK16IySfV1e25LWY9hWeTPQPW72O0w/PYS7cV+dZjod56LKyqwtsG1wbUEyg5RhGuRDvvr51JGTfI5j7a6XsSHn3u0Z0L75wvxlDnWgj0MGorqzvAo5tO+UFPzyM99jR0rjT1SFEMQTToxdBKrGO/I9BQW/t1K2Z9R/vElHoXt9ZfVprmItnX3J2vrrr6UNwkwzLobvX90o9erqqvrr0PIw26xhzLBowHsbjsFrz69awbSsOYhslY0Jg1g95QXX0QRhF+5C7X369eHTF692v1V7V/qgmjR1Z9dc0WMEq5gQ+sfqBd76BTawpGagMru/7TWvEoFQEa9FSEGE8CIROYKa9CRWO/0FaLL2KZpSUXyMct/PKgtx4N8dUp6Zn1eze2pv4bMOZf0DlRGJZ1sC5nwDj6blJSUmJ1d+mt+9cpsk8a7EFQHu3sWoj6at2zMWLQpeySWbLNcB9FQTx2/H3/lAYdKgMZdNStFEZdtyY5MuhcFKfbIExHAiTgINBiWd/C7WyMI8j3EMO6j80555wzkhnznsyf+CphxC4EpHdu2bGrd4nwCBDjiA+ZfDWZMZds3UplrQ2sHV1XY1pA+9OdWDQ3r7mjWXvfdI/TliDNFeJGhTxw+OjYJRir4qt2CfQJYA/dB4xPcKC5Dx8dDCYBEghCwDLO1kkOQ9JtlEbOkeHPVOkxsa77PnIqVRKP+2j/dmPxmiAeqno26klxrsq4XeeVL7Pb1FqolqK0XaLH1tUdahn2JbtE+ASg8V7EJ3V/6hMdIFi16ybGA5L2++KWUhqfDk6UHNlleikRw99dCdCg78qEISSQNQIT6+rqMGw6VbOAh7Gd5gc6aXET31snnWYa7fFQTX0Fl8yy1dd1K4UJ39t10lrKCrMN4kXKavNY1FoIj969WhmfGKUls+WTujp1TpoGCy+TxjsiVSy2j8Ob9BDXqn5aO6L10ZekBQ6gSL2LZAAB4amSQDYJdFrWQbr6MWyqfUPFgrgJmnorNNP182SW7odHtq9pa1uhBQN7u2ulQyIMuWi1w/vq3euwNkK3bbGtqrocD4GrdeuRLB2e6pYli3fGxaL60wG4Vmudef2OYfjXNXU0rfGLZ/iuBLQWWOyajSEkQAJpEbBt7Zs+bqjv6JTR2NhYHevs0rpJQp/OB0RwL+3fDsvVYSRBOIXDGgbtYWe8wjZdQ2W8RJScsjePDYc+b1nWv6WoYp9oy7b/A58nvRTz1FFsydqF+rRiAmU1XspajcXly2sba/+hu+86Po27DN8P6KPfz4MtBCb7xe0SbtsH7BLmGaBe8AzOSmD/eG2NPfSsXBxUSgLeBGBItBcEGZbet5ftrq7jvEvbNRRznfsGWcC0q4b+EYLtRiq1zkRzlzvZWx1G+staOiWRbSSddpE2wrrrhUgZ7B5tGyPknXrUZQx+G1DQkfi9AJsX/Rw2/mns//4RXnH8TcOY2tNTXQfxT+MqtVaqm8phX4QvpEoj8ROqq/dG3ap10mJTmKe10jFRL4FgF0tvNh6QAAlkmwBukrghp3Z4SDgndareFJXRzujMXp/3Ae65/d3p7m6mauWb46lotDY1HSuGNFW6RDx60EkfwqJdXadBX2MifWi/tj0MDxOn4cMz92FUpxXv4V8xceLEkX760fO+1y/OGY630CbL9rnOMK/jTqVO9gp3h2GIKFoRUVplu/Om5+dra+lxYy4SGMAEMIT7sfbp28YRqdJig5pj0evWnpcXffiS20Up9Pb/IXel1qVgEI8G29LlL72UdMMevIWA3VWNy3X0JdLgiWlcfXW1b48eIwjnJtJm6xfntofsbLdj67a2+poazx0LVWmptlHFN22/nayuKA8bsdpa54XHrUe9NlBKpj+zOBlyL37HHnrxtyHPoJgIKPsj/era0zCP+kW/9DJ3bses2/zi/cJxYz0er20d5hc/EMLR89Ruh5hl/UcyJtjC9zIY6KRG3yf/dfGHAY9ILITbzyM4W0EVtmUvGj9m/C6rz7H/wVtYnPmSXsHq4mS99Maamu9JT15HV8Q079BJF14a9tDDY0lNJDBACOAJWm/FdA8P3GbulU+ruvHA0B9ldXb9A4ZEbz7SpSBq2fdPrqnR+t61K2u/8GKaQr8dbOMY9Kb/2z30PmHChMFYgIa5aeO6dKAg3+cWzb/rGndeeVUNPf4R7vAs+1VMdU33KeM/fcL7BONBsQy99MfxPflxfSLgaaiuOxvMr3eHe/mx/8LLZ5199uNecdkL6x899JLsAaJmEiABN4Gz5s59BR+9kGF333nLPnkwL2tZxt+xr/YSLHB6yTbMSvQuZ2CRk+5rV33U9Xpsu26rETdEqYbfe7P0pwPTVk9is5Y5uucE4/uDl1944ej6MTV/x7hxK147+0zn9u0nZmp4MeR9+diamvvxatybibqsr1xfko+PfsIge64VwA55j+D6+xviv5Soo98vOI21u6MvgdPd4LQS7/vXooc/HbvyHe6XxxUei5jqfIxcpNxMyZWPXhCgQedlQAI5JCA3KtwcH8PNcZZusdLzQVqZb4XADOlmTJEOU5r7+iQJqwgf9fkPNgeVPmF3dnWCrfaWpTBWGC62J+M3TKdsS16hM3oNepjKw9IVUca/xWzjNZx6apuBhXdId/FOTpg8CMDLNNTNa1pb9fdfCOsEDQ65h4aSikhgIBEoMdVPcL6h90CwqqdDW6/CV6xKzMsGEnfnueKVLMyh21mZp8XCx1ZnWcmOMbz86LA9Rv0pWZpCiJMRBGWqpGsJMq0nrt/XSit3y2oZmdax0PNzUVyhtxDr1+8IvN3auhJLzReGemJKNZvlZdPw7u5/pdSLd4vN0tLDWlpaXkyZth8nwLDHDeC1IdRTVObPh5aYU2Gc2lPpxVD0rQcdesjX0vkiGh4ENkOeg45b8ABxMYztLMgJJSWRI82IeZxpmGdgVvhCxN+IdH9Dmg9T1SdVPD4Z+xMpL1W6dOLB621sWXv06tWrt6STn3l2Ekg9fEJSJEACoRPYyx7znffUO1MxHvnZjJUr1RQpKz2yqamp/cADD7zq4w8+Oga9T5/duNQrlRHz2BXNzck+eoH7a/93q9vb38Vit9MwIvwXnG3GnRulzJvWtrf+u5DDQsY5sZj1JA49WcIw/hhz09dDJLmWQ543kPBhrAD/w9stLa/AUAcYzDaMsdXVjRgWOhGL076GqQZZaBn4nGefc87Fi+5cgI1r7JO0Kq2RCIDaVFnpUVhR/4FGciZJQiBwgybRxSgSIAFNAs93PP/Jbqb6Cu73z2tm8UqGF3vVopLyssPEmEsC6e2ZZSWnIdzj5qj+XjKobGZu3+/1qnbhhMU/iaqM01Gj7enWKt77NdWchDEXPU2trU/BAHsNH8eUYZ4rxtyvvL322ks+wxqvD9qxG/rvUaUlU5BnMuQ/ZI45qDGXsta0tzc1t7fjoaNtesmgclmsJr33zb31MG2Pa6Y3Nn4ga0Bmnzv3VFy3lyJvV9/Y4D6c229LK3Y7EMa8LXjuMHP0j1XuNOhhXhPURQIBCKxsbX2vcujgmbg5ypz6tgBZkVS9gtXA03FznrNzPvjT3PLuMObpj8QN13mD/j2M+b8g7ac38E+z9DnCDnWaw7MqWS/fodPUS6cMvXS6w8em4Tx/R336Hra0tz9oGqWHwsAt7RuT3Ae++AS6cTOG2Ce0tLUtcqeG8cXrXuqq3nCldkRU5OS1Ha3ze8M8DnbutR45VoxmpLysYW1H2yx8cOV1j6RpB8m2rqjfJdBfbSrzIjxknIchdRlRSOnEqLd0tP3UKIkcjN71aykzeCRAvnVg8U2c2ylvvfWW1iY/fdQoW+9asfXSYbOl9X30+3v0N4by15G1GA65Zw0tFZNAagIrVqyQXs5l2Ff7puiOrrNxo/syhjNl05eKPrnxWUz0ZvDutPqjaZQ83NTeJMOvvk7m6cfV1h4ZjRnXKtNYNmvu3P/SfRVoyLBh927ZsGF/lDXFtwDbeK80Yn5qrHwTGkbpbuW3dX3ySQPqP943mTJaMK//377xjgisuJ4XM9QgTCvs4Qjue2irVysGD76vb6C/r7mj+Z+IPaK+un4Gdh39Bl4lOArj2WMR5uz0yELGDTDkTylbPTwkov78akvLRn+thgHDdw1e4dqANp2Jh6wb17S2aI3ItHS0PA29Ill1PQ94t6ZTCB4yxJhPxYYxhwPMHDA7FUP5Q5LoiuGaehzX48JIWdkjKLszSdqkUdjB7qd2d/cIXFM1vgmVsbK8ouJ233hHhFlefif2dRiHKbCJjuC+h8p4z7RLr+wbWFg+3D8K29Wdefs2QO57c0tS5QMOPXgr/uD0P4CRRJczavu2bcaq15PeQ53JAx+XVQwxygePCJwvrAzDh1Uao0aEjq23emtWrjI2b9zU6w/z4LOHBduka5+GqkG/OnZc2jeTMOvup0s2Lenq6hoRiUS2l5eXb+ox/H7JGZ4FArKRzPLly0fCSOHhwdiEaQ1ZiBZo3joL1SpYlbIhzrqS9yZEYzEYWbMaFd0bRn6jraw2zPu3l+622+pVq1YVdA+3YOFqVow9dE1QTEYCuSTQs9qXK35zCd1V1uLFi9GjNHqnH2DMXSnodRKQdSHwv9ojzige54iAczgpR0WyGBIgARIgARIggbAJ0KCHTZT6SIAESIAESCAPBGjQ8wCdRZIACZAACZBA2ARo0MMmSn0kQAIkQAIkkAcCNOh5gM4iSYAESIAESCBsAjToYROlPhIgARIgARLIAwEa9DxAZ5EkQAIkQAIkEDYBGvSwiVIfCZAACZAACeSBAA16HqCzSBIgARIgARIImwANethEqY8ESIAESIAE8kCABj0P0FkkCZAACZAACYRNgHu5h02U+kiABPorgQhObDhEPtDS+83y/nqyPK/iI0CDXnxtxhoXPwH5u6uFNPSIGAn5omBlj4jhkA+zyLfL5fOcb0KWQ4J/NxqZPNwXESZfwwrD7YCSBwIoknMcA5HyRUZCdoPI+YvIMb7GGT9vOXcR+Va1fA98NSSXXzvbD+WdBDkCcgBE2sn5hRb5ctgqyFLIXyDPQoLUbxTSfwXidK/B84ozIM3jWcjnHIF9H/6/BtAlbSPXidP9A563nAEpjo9B/J4p0uhGv4eEjydJfC7ipH1y4bQ+85uLirjLoEF3E6GfBLJL4H6oPxUiRjuoa0KGhZAFkHch6bp/Q0a3IUlXlzxk6Br0d5B273QLQr5NkJcgYlgWQdZCsuHkO/A3QMQgOQ24uyx5GDm8Ry7D79uQSyB/hOg4eaC7y5XwP+EPw6DfCT2lDt1LcBzEoB+A9O66XYCwIAZdmMyAhOGegpJkBv1SxI8NoyANHQVr0J1PcBrnwSQkQAIZEpBeWTrGXIpthFwLaYVcBUlXD7LmxWXagxqKWn8JIue+BvJIjx8/obnvQ5M8NPwLJJkx9ypwHAIHe0UwjARyQYAGPReUWQYJhEtARtbmQZ6GVEGKxdkhVlTuXcdDnoBIj1h6y5m6K6HgZ5AyD0U7ECYPETL10QGJQdyuEwHykEFHAnkhIDcGOhIggdwRcBs1MQKzIDKU2QaRxVZRiMw91vTIifg9GeLukctwrwx3nwCxIJm4nyKzl5FKpXNbqgSOeHePV0YaboGIoWyBiC45f2E0okd2x+9BkCMgB0K87lly/q9BzoQsgaTjZK78ao+Mf0bYTZBnIdJWCSf1kOmD6ZBvQWZA5OFiM4TOm4BcX3KdpeOaUmS6DfG6D3XnIO1ohz655v7H4S/aQ68/jqI9GVacBIqQQDfq/JBHvdsRJvIc5DeQBshVEDH+TnccPBK20BmYxvGVyOM0WGmoCJxlNXL4zUd2OLQt7jkegl8xnt+DiDF1un3gkTnioyDPOiM0jiuQ5uce6S5E2P96hEuQPHTJA9h9PTIRv6KHzp+AGPTL/aMzipGRFV0nfzNOg74d/mzVS7dOoaSTYSs6EiCB3BFw99B1S25GwtkQ6S26nfQsB8LfsvR+b4TUQ+QBxII4XTk8f4DIw08QJ6Mf1a4M98LvZ8xdSePeVfh3uVcEw0ggVwQGwk0gVyxZDgnkgsBlKERWUztdDTwHOwP6+XEXzu9ayLGQDa5zlUWHj0EqXeHJvDLc7nTy0CWjAHQkUFQEaNCLqrlY2X5AIN0eeuLUxZgtTHgcvzMdx4V6mOm5u8/rcQR8DSLD304nw99BDPJkZ2Ycy3ytvI5HRwJFRYAGvaiai5UlgTgBmVd3uz3cAQXoV1mo09PQ+UMPvT9AmCys03F7uxJ97PLTSwJFQYAGvSiaiZXsRwTC6KV+4MFDdlgbqE5WKK90nfxQ+C91hfl5ZdTD6T4DD++NTiL96ziMv8GCJMKLtiCbhZXqxwTCuJl4vXteDL3KMM7d69IQvT/xiDjLI8wryLmiXuJl/n2GV0KGkUAhE6BBL+TWYd1IwJvAJI/gVzzCCi0oG0PuiXO8Hwey77vT7QWPe37cGZ84fipx4PhdiOPhDj8PSaDgCdCgF3wTsYL9jEAYvdTTXEy2wu9llFzJ8u4N49z9TkIWxj3jEXm0R5g76G53APy1kEch8lBARwJFQYAGvSiaiZUkgV4Cx+BIxOl+Ac96Z0CBHmezhy6nvMTjvA/1CHMHvYSAh9yB8MtOfCsgF0HKIHQkUNAESgq6dqwcCfQ/Apn0UsXAPOBCIu9hy2YrmbpSKLDSUNKdRp5sZXnTQ/EwjzCvINmBbn/IRFekDLvfDPkR5OeQuyDCPFtuDBRPC0F5th+eQqgiVYRNgAY9bKLURwLhE2iAyusgMtTuvFHLlpWnQtxzxwgK7LYEzrEzgxg83fIzeZjRqZ7XwsDBOhmRZhPkS5A/QaZA3E4M7c8g0g73QGRUxOsBAsEZudnILdIfXQQnJaMdQd1qZHgyaKaBmJ4GfSC2Os85nwTcRk3+Bs92VUiM9hDInpCDIZ+HSA/a6eRDJsdBnnYG5uHYfT7JquB8GEmWLt04r2kH4ajrOpBQWIvhPg/iVV95PVB68yIPQy6HuF+ZQxCdBwEx6DLaEdTdiww06BrUaNA1IDEJCYRIwG0AB0H3ggD65QMX90Oug7wVIF+2krrPJ1vl6OgVNm4XdQek8MsCw/MhslBOGM+E+LmvIuJ4yH9DroK432dHEF0BEiikazZUPDTooeKkMhLIKgH5OMmRkOVZKOX1NHUGMZjZvpF6fT5TmKXjnkMmYS3rFsTAnwzx2rxHep0yv/5FiOwtn+mWsR9Dx4eQTN2+mSpg/uIjQINefG3GGhc3gUyMmgwfy/7lMsx7R8gYpkJfJnULuTppqfPa6jVdg56ogBh2kYshZ0AugMhOcm73OQQ8DTkMkkmZtyH/FZBMnYwWlGaqJOT8MoIi125QJ28a0GkQoEHXgMQkJJBlAodAf6ejjEocy2rrSRAZ1pVFcQk3Cge/hshucbLqupic15x0mPWXNQdut9EdkKZf9NwCuRVyAkTeLBgLcbr94Lkd8k1nII97CYhB/2mvjwehEzBD10iFJEACyQh49YJfR4bXHPIPHMu8+r9DxKhfA5Eel9PJwq2jnAFFcOx17mFWW3rHbrfMHZChX87hj5DJkHs9dJ2GsIM8whlEAlknQIOedcQsgAQyIrADua+CzHFpkd6uLMbKdq/XVWxBe4/wqN3/eYSFESTtMgfysocymXOnI4GcE6BBzzlyFjjACaTbS/0NuEnP0Olk3luGf4vFZfPhY29AkCFvp1sPj4x8ZMvJEPJ5EHebfiFbBVIvCSQjQIOejA7jSKCwCNzgUR3ZWIZu56I1N4e/ICCd3e/cepL5X0VkhytBPfyy+p2OBHJKgAY9p7hZGAns0psLguRFJH7bleE4+MtcYYXqdfdkw6rnUCj6tocymZLIhXvLVYiMRAx3hdFbOASydR3m/Qxp0PPeBKzAACOQ6c3kCRcvMWaym1wxuGwNuV+Dkx/iAvAI/NkcbncWt87p6TmWDWroSCCnBGjQc4qbhZFAxgSWeGj4vEfYQAmSV8Qu9jjZ6zzCshU0xqVYNoeRRXN0JJBTAjToOcXNwkggoyF3wfesB8OBatCPBIs7PXj8D8L+n0d4NoJGQKnsI+B0S5weHpNArgjQoOeKNMshgXAIvA81TS5V0+DP1nC2q6iMvJlONzgL/z48Mv1Q4QzE8QuQH7rCsum9EspLXAX81uWnlwRyQoAGPSeYWQgJ9BIIw6i5e+myAMv9ylZvgQV0EMZDx0ycz5MQ2VjHbUhlqFtW/XdDgrgrkFiG7oPeDy9Cnu+6CnoD/sWuMHpJICcE3H8QOSmUhZAACWRE4Gnknu3ScAz8mex5PQb5033Y+AR5xZhmw8lDwGTITIjswua1GxyC4+d+Cn7bxRPAlSPtDyCyuPBqyH2QhyCrIH48voA4eYXQvRhRHiTEyMv76XQkkHMCNOg5R84CBzgBPyMRBIus4I5CnH+/X4Nfeq3purZ0MyLfY5CvpJFf5p5lJzdZEb6l51cWk4lxlS+nicie9jJPncwtQuSFkO3JEvnESb2lPHHjIPN6RPZuXw55D7IBInUYC2mESL283LkIXOoVwTASyAUB5w0hF+WxDBIY6ATCMOjSG5ZhZ+mVJ5z0XPeEvJ8IKIJfMaTS203XPYuMN0L+mK4C5HP3shOqhuFAt26yI90cyKMQusInEMbfYEGepVmQtWKlSIAEUhF40JVA/pZPdIX1R6/0wmVY/HOQ6ZBMjDmyG5dCjoLIA1LQXeVkNOF/IftDaMwBgS6/BNhDzy9/lj7wCEhv7l3XaafTY/gDdFwBcW4xKr3N2126vbzNCJQtS8Nyok/HvYlE1RAZsnbW2yuvMNkC+QiyDCJfoBN5BSLTDWE6GfYXkRGOkyDyoHAQpAEic/gJF8OBDMHLyMASiLTBh5B0naw9ECZOl4k+p5418Djv7x3OSI1jmQZx70q4SSOfM4mU6dTR5YzM47FcU86/wQ15rEuoRTsbPFTFVEYCJOBJQOZ6RTJ1cnMdm6aS76aZL9NsYiTFiZEc3iOl+JX7kIiMMogRl4cemcMWA5pLJ9MVt/SIlCsPHTL0PhgivKVO6Tx8IZun+ydCJ3nGZB64X4YqnkL+8RnqOCPD/NnK7pyqylYZedFLg54X7CyUBAY0ATGKYrRFCtnJA4WsVxChI4GCJ8A59IJvIlaQBEiABEiABFIToEFPzYgpSIAESIAESKDgCdCgF3wTsYIkQAIkQAIkkJpAERh0+6XUp8EUhU9AhbmYKIPTVctH7jY214utMqgvs5IACZCAHoGCN+gt915wpFKRLxtKySsrOXPKUJZS6lXIL1XEPPndd947KmeF98OC6sePO0mZxglKGTdiifNLkLBfPUpBTS1Xyjzh99+ZeuC8I1WOy05RNUaTAAmQQAgEimKV+9p7z/sbzvVv9Wfc/mVbGVcZti1flwrVwdB027bxMgz5Urw9s9QsrXxu8fmNve9dNs6+48BQCxxgysrKy7auvecCacdH5dT3P+vuyi125zS05Qy8CTQD7XowjgeFj0Utj5jq6sUXTpHtUulIgARIoN8SKAqDnqC/9r7z5XOJT8QNe3zPZdvvQw2JLL6/6CF+gl7/C8qwlyrTXDrc3P2FX5+/t+xCRZcDAq/fM2sbiok/qElxY//1z+WxDe9gYxRretzIKzXNtm15/zdNR0OeJjhmIwESKFICRWXQE4wThr3urF8fbVj2VejhpTTsMOCbsZ3Fc9jTYqkyIkvV7ubLi0+dVCg7FyVObcD+rvnVsZ04+Wd65PpTHnoosuzR9QdgG48ZGDmZYRtqOto51Uc6kJ2GfMBeRDxxEhjgBIrSoCfarOWebz2O48fjht225uHmf2giDsZ7nWGrZ0zTXhqJmEv3/db+r85TyuqN50FBE1h86qmycO3lHrkJvXU1dtb8SbZlwbjHh+hnoCe/16cnQUP+KQsekQAJDEQCRW3QEw2WMOyNZ952DBaxjSlVJc89eNHklYn4+O/5fXz0FBkBtKuskn+jR26V6jeeeedY27YwB682YLGb7KtNRwIkQAIDlkC/MOiJ1mu694K/Nt2b8PG3vxNouvdc+QDFmmb59hYdCZAACQxwAgX/2toAbx+ePgmQAAmQAAloEaBB18LERCRAAiRAAiRQ2ARo0Au7fVg7EiABEiABEtAiQIOuhYmJSIAESIAESKCwCdCgF3b7sHYkQAIkQAIkoEWABl0LExORAAmQAAmQQGEToEEv7PZh7UiABEiABEhAiwANuhYmJiIBEiABEiCBwiZAg17Y7cPakQAJkAAJkIAWARp0LUxMRAIkQAIkQAKFTYAGXbN9KioqmvGt9Huwb7h8NIROl4Dswa6M3xox85+6WZiOBEiABEggOAF8VZQuCIGGOXeNs6OdV+DjX2fgc56RIHmTpS2rGGKUD9b4OmgyJRnEDR9WaYwaUZWBBldWGHJ8a/63JaZ5zYPfniIfVaEjARIgARLIIgEa9DThype+LCMGw26cGYZh7zcGvceQ49O1V//uO1NXpImX2UiABEiABAISoEEPCMydPGHY8W3uM/B9z7S/XlfsBh3TEVZ8aN02rqEhd18l9JMACZBA9gnQoIfEeOzs2xujUfsKAD0zHcNerAa9x5AvNiOl1yy+YNKbIeGkGhIgARIggYAEaNADAkuVPF3DXmwGnYY81ZXAeBIgARLILQEa9CzxHj93QUNXV/cVyrbP0umx592gD6/sHjW8qjQVDjHkOJ+HSlXkmgcvmrwyVXrGkwAJkAAJ5IYADXqWOccNe3f3j2EGZyUz7GWVQ3eUVw0flOXq+KofNqxi0+4jBg/1S7CzR24/WGKUXEtD7keJ4SRAAiSQPwI06Dlin8qwl1cNW1dWOWxUjqqzSzFDh1a8N3rk4L3cEQlDbpRErvnd+fuvcsfTTwIkQAIkUBgEaNBz3A4TzrqjvsuO/diwjdnOHjt65y3opdfluDq9xQ0ZUtG0x6jBjYmAuCE37AeM0si1NOQJKvwlARIggcIlQIOep7bZadity1H8bNu2S7GpzBuYR/9MnqpjDK7a7Z97jh4ymYY8Xy3AckmABEggMwI06Jnxyzj3xDl31XVGu35cXjVy39KKqsMzVpimgsqqQS/svcewpohS1y6+cMrqNNUwGwmQAAmQQJ4I0KDnCby72Mk/emZ4xIj6Lkpzpw/bHxk0eOuyeQetC1sv9ZEACZAACZAACZAACZAACZAACZAACZAACZAACZAACZAACZAACZAACZAACZAACZAACZAACZAACZAACZAACZAACZAACZAACZAACZAACZAACZAACZAACZAACZAACZAACZAACZAACZAACZAACZAACZAACZAACZAACZAACZAACZAACZAACZAACZAACZAACZAACZAACZAACZAACZAACZAACZAACZAACZAACZAACZAACZAACZAACZAACZAACZAACZAACZAACZAACZAACZAACZAACZAACZAACZAACZAACZAACZAACZAACZAACZAACZAACZAACZAACZAACZAACZAACZAACZAACZAACZAACZAACZAACZAACZAACZAACZAACZAACZAACZAACZAACZAACZAACZAACZAACZAACZAACZAACZAACZAACZAACZAACZAACZAACZAACZAACZAACZAACZAACZAACZAACZAACZAACZAACZAACZAACZAACZAACZAACZAACZAACZAACZAACZAACZAACZAACZAACZAACZAACZAACZAACZAACZAACZAACZAACZAACZAACZAACZAACZAACZAACZAACZAACZAACZAACZAACZAACZAACZAACZAACZAACZAACZAACZAACZAACZAACZAACZAACZAACegQ+P9tLWkhQMUZ8gAAAABJRU5ErkJggg==;fillColor=#FF9999;fontColor=#7EA6E0;" vertex="1" parent="1">
          <mxGeometry x="724" y="404" width="192" height="96" as="geometry" />
        </mxCell>
        <mxCell id="_JJxdnKlNdLemzVeChPx-2092" value="" style="shape=image;verticalLabelPosition=bottom;verticalAlign=top;imageAspect=0;image=data:image/png,iVBORw0KGgoAAAANSUhEUgAAAkQAAADICAMAAAA+0w7iAAAABGdBTUEAALGPC/xhBQAAACBjSFJNAAB6JgAAgIQAAPoAAACA6AAAdTAAAOpgAAA6mAAAF3CculE8AAACxFBMVEUAfABYV1iOMyXkVESNMySNMiPhU0PiVEXiVETiU0PjVEThVEOPNybkVkaOMyPjVUPhVESPMybiU0O8RTTiVEPmWEevRTeNMiSNMyTiVEWNMySNMyS3RDThU0PiU0PjVEWVNSuMMiPJSjniU0ONMyTkVUXiVETgUkONMyOOMyPiVETiVETjU0iNMyWNMySPNSeONCSNMyXhU0PhWEmNMyWMMSWMMiO6QzTdUUGVNSYyLy8kICQfHBwjHx8eHR4mHR0kFx0iHR8gHR0gHB4hHR4gHB0hHB4hHR4kHx8gHyAgHR4hHR0gHB0hHB4hHB8iHx8gHR0gHR0gHR0gHB4hHR8gHR0gHR4kHh4iHiElJSUgHR0hHR0pGiMgHB4gHB0hHR4hHR0hHB4iHh4hHB0hHR4jHSAhHB0hHh4hHh6MMyN/LSB0KB9jIBpeHxleHxlmIhu/RTggHB1sJRyALSSxQDTZUEAgHB0gHR0hHB16Kx9iIRohHB4hHR2HLyIiHh5gHxkgHB0iHR6FLyG7RDUhHR0hHR6fOCzWTz8hHB7KSTupPS4gHR0bGxvfUkLGSTqdOCkgHR2ONCUAAAAAAAAAAAAAAAAAAAAAAAAAAAAAAAAAAAAAAAAAAAAAAAAAAAAAAAAAAAAAAAAAAAAAAAAAAAAAAAAAAAAAAAAAAAAAAAAAAAAAAAAAAAAAAAAAAAAAAAAAAAAAAAAAAAAAAADKSjrJSjoAAAAAAAAAAAAAAAAAAADjWkvocGPtiX/tpJvyrKXzsKnuq6TgmpHJe3KtWk7lZFbqfHDvlYvyr6jUi4G5aV2fRDbzr6iyVkrbkojvm5KXPzC0Y1fkXk+qPS7od2viVESOMyTRTT2OMyXiVESMMiPhU0MgHB1eHxm2QjKuPi+iOyyWNifeUUHWTj/OSzzBRjerPS6fOSrKSToAAADysKn///+TU40gAAAA2nRSTlMAATczWdbXWv3TVPshI0BI+UL1lZgdElGQRkfJxN6fYhj9wMSdPuepZuC+bi4opuowbu6yeLnxa9LMBBwnMSQYEFig1/j0vH8fN47C0Jl0SpWwuLQ+poQpLBTMiQjG/ZJx8Uz7ZFDIVVz4zr/P8PjHyq7Av8Xs5N3qxdereOJD3+5H2MVnYL3ibNXAnA781MRP+y93mK/FtJxmKd9Oi6S9g0HQkPbrfKs01eVtSF6g8tn7WTrZz6d1VHPL8dLDydj518PAzuHDwenAxtzlss7WxrrJzL5+gsRLjjLsQ9YAAAABYktHROu/3Sa4AAAAB3RJTUUH4gkMFB0jlrrbIgAAEiRJREFUeNrtnfljlMUdh/dVEaxIES+UQ/FGPFFQN9fmhiRACOFIWDYESDDeeCypRAxeoEk9OAKEI+FsOAQDtaJtrb2srbb20trdaBXbWvwruu+87zsz77V5r903m3yen7Izs7Nvdp7MzDvzfSeBAAAAAAAAAAAAAAAAAAAAAAAAAAAAAAAAAAAAII0IZ50t+H0NIKMRzhkWi587HBoBp4gKxWLxODQCDpEUisVGxKERcISikCwRNAJ2YQpRieLx874HjYBVeIU4iaARsIpaIZVE0AhYQauQRiJoBPpDr5BOImgEkmGkkIFE0AiYYaxQLHZ+PA6NgCVGGitkIlFCowv8vmIw4BgVsydR/Pt+XzEYcEAi4BpIBFwDiYBrIBFwDSQCrjGVaDQkAhaBRMA1kAi4BhIB10Ai4JoLIRFwCyQCroFEwDWmEo2BREDmwosuHn5JsnwvJbr0srEXXe73bww85opxsfGJhp8w8UqzWDLPJLrqsrHDJsViV8evgUaDiYRCMSJR3FwkTyQaec61SoDk1Yki11zn928OPIIoxCQSuf4GnUiuJRp547WTubddTQrdBI0GA7JCaokkkabczEXbu5FIuOXGW2/TvO1quRg0yniEcbRVxxuIwInkVCLh9jt0AvESJTS61O9vAbhCiCWVSGTqnVPEw9CcSCScdde06SZvYxLFb/b7WwCusCCRLNLddiW621wgSDSosChRgnvsSnRvLCmQaNCQYRIFs7JzcvOCKfgixJqzU1Lz4CeDJArlFxQW9YkUl5Tman+P3GyRGdKrmWXlFSWzZmex/OCcyrlV80qrBeOa58s1F5UvWKjNXTTTkBpNsdzZlXNrywsW54d19QcJ8kdXlxYsqagqm+l3y3tIxkiUXSA1s0xkrroVyuX0BYmfc+bJL4rq5JYWltbLSYXLDGperqq5qlqVvbjPmOIZXKHgiiUso0B9aeEKKb2+gb+2vlqdrRmLe4kmTU2DRMHFEW0jRsq4sSdPSS0MBBq4ooXEoqxa7n3zg/3XzHcmjSYS9a1kZbIbk1QwR0kuCARWcn8Jxff53fhe4U6ipvsfePChhx+Z9uiY1EpUY9iSFSFagJNomarHqkhYVFOoetuqoJ2arUh0X7E2r5DrZpYxiWaqrm15dWBw4Fyi6fc/9uDDX8g8/ODjTzyZMonCJg1ZRUswiWZoGrQgICzRvG02V3Otcc0lbO7Uv0QNEX1mlA12TKLganWh5pDfze8N1iU6lxfoB489RQWiPKUWyTuJ1pi1Y75SgklUoCkSmZmva2DWFa0yq5kNNf1KVF1klFtIJ95MohZtoaV+N7832Jfo6YRAX5jCieSZRNVmzdhXq5MoqhtZGgt1b6PurTWtubB/ieZI+eGocfZcnURrouafktFYl2iCJNAzX/SLLJJnErEhp37ByuqGAm70UO708/rsUKevubhsZfWcOq7mRUoZs86qVe7PuLu3ijXlzezVOq1E9fpKcgODARsSPWtFICbSc8M8kmgR/cpLQiShgfU2yqhjT6JyXc210uCzljnwvPLxMxbXMbh+rlTKzqWDWbNoTbiFilgY1EhkQIPf7Z9miUbfM35asoGM55lHHng6FvNIohb6hx7WpigtGcjiGqa4LH/lAvVffe2K6mVcjxLV1hNVJjDP0zKLjS7lBVZHozz1rlQSImulhKVaw3mJlpfl5OZz0+vSwGDAukQSUx998fFHHjLX56EHH3vg/un9CWRLohJttxPIpY1QJqdwPVErGSKyuHGlr4w0eCl9Xa+tmd6vMRkLDK4kq5WZKg9EQZq0Si4UpDMf+eaRk2g5mUeF2Nxolt/t7wl2JSKMWP/EtAe0t2cPP/XIYz94epIVf+xJpDR+PVvBW61tak4ieda8gqXIo5dA2265/C5lOlPEtjDoLHyewZVUsTo3yEkNNGWOUor1TdK2CydRpfba1vjd/p7gSCKJMS+9PE2aJj2T0OfZJsv62J1Yh3Ialpatqn2epTRqG4FJpMx3Q2ySrNyLz6cpyipQjVjzmsalBjWX66+D85KuI7E6Q0qxDTRJqpeTKEe+NppQFRgMuJBIHt+es62PXYn0KDtlBhLRxmdjRracUqeTSE8SibLYPIvtm9E+MUrLsRUJ6eqYRFHlc1vNPyUTcS1RfIwjhdxJVKJuJl6iNqUMvX0vUpqOTooi5jUvMW9ebjCjnSLr70poOdbPrCavmUR0nlWhpCzxu/09IcMkyqvOb6mcW0tvq/UStShFaZtXKCn0viliWnMFrVknEbtx4wYhtlpZyUqyPpDMtZhEK3TX1uh3+3tCBkkUaqjTLT7rJaINRW/p6V87naxoJWpfpq9ZKxG3J1fP4pSYWQtYUbaESXZYmUR0VWguJPJDorwFjQbbnAYSvaC8Y55OB+OeqKbUsGaNREIJy+JCOFpoIrfiwzZ8iTVMIrprTwWHROmTSCgt7jMkiUR0yKCzFSOJhNkmNWskYrdcbFMswO95tLDEEvXFMIlylBKQKP0Shcv7TNBLRLsJvUSz9RIFq8xqVkuUy1RrzePSZxlJRPtA6R6fSUSDjCBR2iUS5qnbtyiaZGJtSyJhvqriSOtq44m1wFmcz2ewwBNOIrbBQsY4SDQQJKpkLVjctnJGmFtXdinRAlZza92cGoGrWSUR2w/TrDGXqX2RYBItFV9CouT8cP0r41/+8l9ffZ1KidjOQt+sdinJI4nWsZorw5qaeYm4waxZ/ZAH24/jNmzpvZd2TgSJVDz50nMvv3rvbWSn7LSY8M2///Plf7+1I5NViQR2902HDHoT7U6iWn3NFQYS8fG1mtgN1kVVskQ2sX5NfAmJDOWZ/Dpvw2ku//Q3/7Mqk1WJ2Hoea1dvJJppULORRPR9+r19FnrLDXMsFpI8OwSJGOsT8hjukp02KCzK9LU3ErEZEXu8IqptOkcSsfvzfH3NTKKFbDCLhjQXl23gIasjQsZISMR4xcyG0yZv+MobidiYQ3c92+nqoBKw4UiikmQ10+YVuCDrOdqLE6hgrTQtSOuQNlwgkf8S0b3zCH1Ig02IlX0xRxJFk9VMd+VbmEOR1mi0cNXifG5yze796fJRDk2SQs4gkf8SsT2JdiWJjXBF8k2VI4lYnGJYX3NEliLX4IGgSGOLokyp/oPZ4rY0/kIi/yVijajsGoS5AGp5nuRIIhZBqzzaEWZeKTu53CIVT/EsKUqJRerSmTXtnOT4OEjkv0QssELZKOeWCJVWcCQRWzsoNai5UApD4rRSs1yajdMZ03I59o2NZnIAOCTyXyLuqTNp/nuf6hAPacPVkURsPiPvh61UDV0kjLq9zxQpTpEFg1SRjidM1YzIzkAi/yViQa19zQ2h4MwCdeBGMWkZRxJx/U50TlhY1KauuUgcPmeYSyTNpIKsPytZJASr2UvlSQ5I5L9Er6lbVteUlY4lUj1EHdGHhLRZkYidHJOgnrs8eloDJPJfomC0LxmRBscSCYVJayZLkP1LZPacNV3AhET+S8QHN9O/8nXKfLdIaitne2f5+ppb1yn3bEVktsUkipasaasrWFWuWxgwPp6GhYZAogEgkaD7U29eqLR/vfzsssNQEO05NH2tOcrwWSydxyBJtLpsLVtgzGpoa+YlCuSt7tNRxq4fEg0AiQLhEnUDlYuPMJOYwmZl6cihROG56pqXiM1MZvKt8rmLNYkuqS1He0XC2nmRviK6zp2njY8s3sAVNpBoyAbq+yeROsQ6KmkiJHqR1fRklnY6o6XbWzRoka4C0uMYmlnNLdzCZfML5KZdSPgZpe29ojTP8JoWlnFRIcIG1bR8ierEGBosEKE10R5wqD0B66NEiQ6hpURs7eLVdWuVv39hwSyuee+rKiEspg+3Zq+RUtbQk4bClVJKFX+CbGhpVSupuXIdrbm0LStgk3Z6fGz9LO3pwqXSx5aw7im3oIowP8fepwxQMkQikWAoVUeVe1NzzcyGpSvWZQ/B89QzSCIwUPFAojgkGuJAIuAaSARcA4mAayARcA0kAq6BRMA1kAi4BhIB10Ai4JrMkWjjps1bOjq2btve6fd3BjRkiETBTTvOUDp26vLDO3ft7tq6rXvPENz+9J/MkGjj3jMqtqn/43No334l58BBaJR2MkKizgNnNPyIz+5RZR/KC4D0kgkShQ5LnczmI0f3vHFM6nS2s+yNx9WCvVkTAGklEyTaJQ1hshu5ZGg7TEetIHm9f19PTajnGCl5zO8vdaiRARKFetVm5JG+6ITycrv46vhJ6cUmYtFGv7/VIYZ1iX48ucmORKe/+dYjiYglB0IsYZ9Kqr2q0W2r+GqX39/qEMPOmY3nr39r/MuvDpueXCKrpzZalugnZDDjEjrJzEd+ka0e3I7yeSA9ODk99sm3yOmfTWqJxPNj7RxGbFmiQ6IXb3MJQXF865Uf6zihVkzKCwdAGnFxjvWI9QmZXrx3sk15bEtEbuBV64vkbi0k/dwt/nxEk5cdAGnE/Yn6p23rY1MiMo8+xaeceOedTZtC0s+bVbPsQOBdzKzTTgZIRDY83jHL3bU3wUlNaaw3phX3EsVTLRHpWzos/j5kTrRfsFgaeIIHEln/L+bOJCID1pmT1n4fcue21+9vdYjhgUTO/hm1dYl2EokO51r6fbZp9kRAGvBAotdTLFFQigI5sNPCIJUtjmYHcIefXjJgOAuckndW957qT6M94nJA784ASCuZIJG8A5tgx64ekyKhnp6TJ46RlcZTAZBe3Es0ItXDWeIiD/bSQI8d3YaTozfk7N7dWCNKO64k+unPfv7eL95//5e/+vVvbkulRIHAyXe5gKEug/Fqu5zXHfL7Gx2COJRoxG8/+N17H37H8eF7v//DR3Y6JXuB+sLRLaw3OtOhC9Y/omT1bu3pvzbgKfYlkrqf7wyx0ynZfmQobxOLtD6u7YxOdnfvOka2as/sf8PvL3WoYUci0v18/F2/fCx2Sv1Ot508d9bZfVi2aP8ew/wtZ7Rb/iD12Pj3nX/80/v9C0T55M6PvJcoEAgfkTXaYbwYRALWevFoWlqxEdkYi03/818sifTJB3+dGo//LRUSJTTaJ1lkvCUb3oEo67RjSyKR/kSSBBJJkUSBwMEzSbZkyb3+cTx8lk5sS5RMpIRA17M3pEwioYOMWSHDzDBC9dOOI4kMRHr/k78rPZDHEuX1JFAHCJ1IJsphXSAkSDGOJeJEEgUao3+DRxJt1z+/ESISHTUuT7op3OWnE1cSSSIZCeShRKTb2axO2097m86DCVT9zhZNvCxIOa4lijWZvcEjiUg40W51Gond76G5XXxeV5JeCqSEgS/RRp0mUgysFEjdQ9aM+MxDmFinm4EvUVg05rgqkmgPWbMmt/HkGete7giH9l6aB9LEwJdI6lpU49MW7nQZsr1/kOWdshPWDzzBokSjr/n0brsS3f3ZuCYvJCKPJ77L9S1S0LU8dyYrj4fZHkiH5mFGkHosSDTmpk+vS4wmo+xKdHli8jLqs2lNbiXqlM6LoZ4cJecRvSm/Du1XPUf9Nlmwbvf7ax1aCOOSSjT1TiKQiBOJRIJn3TVtelKJzrsk+TXuJhYd2k5mPhuPSXFFdBdf2gTZQqbZoV1JttVAyhAuG2ci0dQ7p5zNzWcvdCgR+ZDb77j1NhOJzh3eX/h9nnKc3vE39yo/sllQsEsKRuvavK1DOjOtC88uph3hsmE6ia6/YcrNmqZwIxHhlhtvnayTqH+FEnQqUUQ0fJHva0Jd6swuPDHkB1JvpEg0YeKVFxgUci2RyMhzrh0mv+8f4kdZUShB3u5eXpMO9TJQsHs/yzuO42N94/NxRKIJE4ebTVA8kUjkqnPGDpskSjThSuvjTmd3h+RR7959+iDq9iMdB6Qx7W2c5eAnV1x08fBkM1zPJBK59POxN9hQiBDM6zx5stN0rApnd9ZgMjTA8VQiMDS5AhIBt0Ai4BpIBFwDiYBrIBFwDSQCroFEwDWQCLgGEgHXQCLgms8hEXALJAKugUTANZAIuGbUJHsSjT7b7ysGA49bbp1kXaLRF1/i/hPBIMRQoyYoBGxhoFETFAI20WnUBIWAbTQaqSU6HwoBS6g0aoJCwBGcRk1QCDiEatREFbrAfa1giCFrJEl0/kQoBJxANGoaAYWAGxIaNY2AQsAdI8f+E9NpAAAAAAAAAAAAAAAAAAAAAAAAAAAAAAAAAAAAAJnB/wEMRTVxtD/WcQAAACV0RVh0ZGF0ZTpjcmVhdGUAMjAxOC0wOS0xMlQyMDoyOTozNSswMDowMITfdNAAAAAldEVYdGRhdGU6bW9kaWZ5ADIwMTgtMDktMTJUMjA6Mjk6MzUrMDA6MDD1gsxsAAAAAElFTkSuQmCC;fillColor=#FF9999;fontColor=#7EA6E0;" vertex="1" parent="1">
          <mxGeometry x="450" y="401" width="290.5" height="100" as="geometry" />
        </mxCell>
        <mxCell id="_JJxdnKlNdLemzVeChPx-2100" value="Identity" style="rounded=1;whiteSpace=wrap;html=1;dashed=1;strokeColor=none;strokeWidth=2;fillColor=#FFFFFF;fontFamily=Helvetica;fontSize=14;fontColor=#FFB366;opacity=75;verticalAlign=top;fontStyle=1" vertex="1" parent="1">
          <mxGeometry x="750" y="585.25" width="140" height="134" as="geometry" />
        </mxCell>
        <mxCell id="2051" value="HDInsight" style="verticalLabelPosition=bottom;html=1;verticalAlign=top;strokeColor=none;fillColor=#3399FF;shape=mxgraph.azure.hdinsight;dashed=1;fontSize=14;fontColor=#004C99" parent="1" vertex="1">
          <mxGeometry x="788.8" y="627.25" width="50" height="52.75" as="geometry" />
        </mxCell>
        <mxCell id="2081" value="" style="arrow;html=1;endArrow=block;endFill=1;strokeColor=none;strokeWidth=4;fontFamily=Helvetica;fontSize=36;fontColor=#FFB366;fillColor=#FFB366;edgeStyle=elbowEdgeStyle;" parent="1" edge="1" source="2023">
          <mxGeometry width="100" height="100" relative="1" as="geometry">
            <mxPoint x="978.5" y="664.54" as="sourcePoint" />
            <mxPoint x="916" y="664.54" as="targetPoint" />
            <Array as="points">
              <mxPoint x="1010" y="580" />
            </Array>
          </mxGeometry>
        </mxCell>
      </root>
    </mxGraphModel>
  </diagram>
</mxfile>
